<svg width="205" height="49" viewBox="0 0 205 49" fill="none" xmlns="http://www.w3.org/2000/svg">
<rect width="205" height="49" fill="white"/>
<path d="M30.656 30H21.328V18.8H30.304V20.16H22.896V23.536H29.648V24.896H22.896V28.64H30.656V30ZM32.9304 30H31.2024L35.0104 25.776L31.4904 21.888H33.2984L35.8904 24.768L38.4824 21.888H40.2104L36.7384 25.696L40.6264 30H38.8184L35.8744 26.704L32.9304 30ZM43.1858 33.04H41.6978V21.888H42.9138L43.1698 23.376C43.9218 22.304 45.2658 21.632 46.8018 21.632C47.6178 21.632 48.3858 21.808 49.0098 22.16C50.2578 22.864 50.9618 24.192 50.9618 25.904C50.9618 26.752 50.7858 27.52 50.4338 28.16C49.6978 29.472 48.3698 30.256 46.6418 30.256C45.1218 30.256 43.9698 29.728 43.1858 28.688V33.04ZM46.2258 29.056C48.3058 29.056 49.3938 27.952 49.3938 25.92C49.3938 23.984 48.2578 22.864 46.3378 22.864C45.7618 22.864 45.2178 22.96 44.7378 23.216C43.7778 23.744 43.1698 24.608 43.1698 25.68V26.16C43.1698 26.72 43.2978 27.232 43.5698 27.632C44.0818 28.528 45.0258 29.056 46.2258 29.056ZM54.2326 30H52.7446V18.8H54.2326V30ZM60.7038 30.256C59.7438 30.256 58.9278 30.08 58.2078 29.728C56.7998 29.056 55.9998 27.712 55.9998 25.984C55.9998 25.088 56.2078 24.336 56.6078 23.68C57.4078 22.384 58.8958 21.632 60.7838 21.632C61.7758 21.632 62.6078 21.808 63.3278 22.16C64.7198 22.864 65.5038 24.16 65.5038 25.936C65.5038 26.784 65.3278 27.568 64.9278 28.192C64.1278 29.504 62.6558 30.256 60.7038 30.256ZM60.7358 29.056C62.7678 29.056 63.9358 27.904 63.9358 25.968C63.9358 23.968 62.7838 22.864 60.7678 22.864C58.7518 22.864 57.5678 23.984 57.5678 25.952C57.5678 27.888 58.7358 29.056 60.7358 29.056ZM68.6039 30H67.1159V21.888H68.3319L68.5879 23.408C69.4039 22.304 70.4279 21.744 71.6599 21.744C71.8999 21.744 72.1879 21.776 72.5239 21.824V23.104C72.2199 23.056 71.7719 23.024 71.5319 23.024C70.6839 23.024 69.9799 23.28 69.4359 23.808C68.8759 24.32 68.6039 24.88 68.6039 25.568V30ZM77.421 30.256C73.133 30.256 72.781 27.008 72.781 26.032C72.781 25.136 72.973 24.384 73.357 23.712C74.125 22.416 75.517 21.632 77.309 21.632C80.077 21.632 81.693 23.136 81.693 25.728V26.352H74.349C74.525 28.096 75.613 29.056 77.453 29.056C78.989 29.056 79.869 28.448 80.141 27.248H81.661C81.325 29.2 79.805 30.256 77.421 30.256ZM74.333 25.248H80.237C80.173 23.552 79.229 22.8 77.293 22.8C76.605 22.8 76.061 22.896 75.677 23.12C74.845 23.584 74.477 24.4 74.333 25.248ZM89.2866 30H87.7186V18.8H93.0786C96.0066 18.8 97.4786 19.952 97.4786 22.288C97.4786 24.624 95.9426 25.824 92.8866 25.824H89.2866V30ZM89.2866 20.16V24.448H92.9346C94.9186 24.448 95.8466 23.744 95.8466 22.256C95.8466 20.816 94.9666 20.16 92.9666 20.16H89.2866ZM100.639 30H99.1509V18.8H100.639V30ZM106.47 30.256C105.622 30.256 104.886 30.08 104.262 29.712C103.014 29.04 102.31 27.696 102.31 26.016C102.31 25.136 102.486 24.384 102.854 23.712C103.59 22.416 104.918 21.632 106.63 21.632C108.166 21.632 109.334 22.192 110.134 23.264V21.888H111.574V30H110.342L110.086 28.544C109.366 29.6 108.006 30.256 106.47 30.256ZM106.934 29.056C107.542 29.056 108.086 28.928 108.566 28.672C109.51 28.16 110.102 27.296 110.102 26.208V25.728C110.102 25.168 109.974 24.656 109.718 24.24C109.19 23.36 108.262 22.864 107.046 22.864C104.998 22.864 103.878 23.936 103.878 26C103.878 27.92 105.014 29.056 106.934 29.056ZM117.253 30.176C115.349 30.176 114.229 29.216 114.229 27.632V23.04H112.629V21.888H114.229V19.696H115.717V21.888H118.501V23.04H115.717V27.632C115.717 28.528 116.293 28.976 117.509 28.976C117.877 28.976 118.181 28.96 118.501 28.88V30.064C118.101 30.144 117.701 30.176 117.253 30.176ZM121.905 30H120.417V23.04H118.817V21.888H120.417V21.216C120.417 19.632 121.537 18.672 123.441 18.672C123.889 18.672 124.305 18.704 124.689 18.784V19.968C124.369 19.888 124.065 19.872 123.697 19.872C122.481 19.872 121.905 20.32 121.905 21.216V21.888H124.689V23.04H121.905V30ZM130.141 30.256C129.181 30.256 128.365 30.08 127.645 29.728C126.237 29.056 125.437 27.712 125.437 25.984C125.437 25.088 125.645 24.336 126.045 23.68C126.845 22.384 128.333 21.632 130.221 21.632C131.213 21.632 132.045 21.808 132.765 22.16C134.157 22.864 134.941 24.16 134.941 25.936C134.941 26.784 134.765 27.568 134.365 28.192C133.565 29.504 132.093 30.256 130.141 30.256ZM130.173 29.056C132.205 29.056 133.373 27.904 133.373 25.968C133.373 23.968 132.221 22.864 130.205 22.864C128.189 22.864 127.005 23.984 127.005 25.952C127.005 27.888 128.173 29.056 130.173 29.056ZM138.041 30H136.553V21.888H137.769L138.025 23.408C138.841 22.304 139.865 21.744 141.097 21.744C141.337 21.744 141.625 21.776 141.961 21.824V23.104C141.657 23.056 141.209 23.024 140.969 23.024C140.121 23.024 139.417 23.28 138.873 23.808C138.313 24.32 138.041 24.88 138.041 25.568V30ZM144.716 30H143.228V21.888H144.444L144.7 23.392C145.564 22.224 146.636 21.632 147.916 21.632C149.436 21.632 150.412 22.224 150.78 23.36C151.74 22.176 152.78 21.632 154.22 21.632C156.3 21.632 157.324 22.704 157.324 24.768V30H155.836V25.04C155.836 23.552 155.244 22.896 153.836 22.896C153.068 22.896 152.364 23.168 151.772 23.728C151.276 24.176 151.02 24.672 151.02 25.28V30H149.532V25.04C149.532 23.552 148.94 22.896 147.532 22.896C146.764 22.896 146.06 23.2 145.468 23.824C144.972 24.32 144.716 24.88 144.716 25.568V30Z" fill="#081014"/>
<g clip-path="url(#clip0_1798_9174)">
<mask id="mask0_1798_9174" style="mask-type:alpha" maskUnits="userSpaceOnUse" x="165" y="15" width="20" height="20">
<g clip-path="url(#clip1_1798_9174)">
<path d="M170.416 19.5834V21.25H177.575L169.583 29.2417L170.758 30.4167L178.75 22.425V29.5834H180.416V19.5834H170.416Z" fill="black"/>
</g>
</mask>
<g mask="url(#mask0_1798_9174)">
<rect x="165" y="15" width="20" height="20" fill="#081014"/>
</g>
</g>
<defs>
<clipPath id="clip0_1798_9174">
<rect width="20" height="20" fill="white" transform="translate(165 15)"/>
</clipPath>
<clipPath id="clip1_1798_9174">
<rect width="20" height="20" fill="white" transform="translate(165 15)"/>
</clipPath>
</defs>
</svg>
