<svg width="356" height="24" viewBox="0 0 356 24" fill="none" xmlns="http://www.w3.org/2000/svg">
<g clip-path="url(#clip0_1798_9149)">
<path d="M11.9983 7.35865L14.49 3.40697C14.6064 3.22161 14.7747 3.08181 14.971 3.00725C16.4005 2.46255 22.4516 0.157404 23 0C23 0 20.7739 0.522955 18.4823 9.27339C18.4285 9.47946 18.3178 9.66379 18.1649 9.80048L15.8695 11.8478C15.679 12.0176 15.6838 12.3324 15.8791 12.496L18.0831 14.3331C18.2582 14.4791 18.3823 14.6842 18.4342 14.9161C18.7777 16.4508 20.2909 22.5223 23 24C23 24 15.1259 21.2786 14.7949 21.2786C14.539 21.2786 12.7814 18.203 11.9897 16.7936C11.8088 16.4726 11.3807 16.4612 11.1854 16.7729L8.80538 20.5744C8.61009 20.8871 8.32629 21.1222 7.99632 21.2454C6.29931 21.8802 0.898528 23.8861 0.16643 23.999C0.16643 23.999 2.50991 23.3404 4.60423 14.8861C4.65618 14.6748 4.76778 14.4864 4.92362 14.3466L7.17379 12.3303C7.36331 12.1605 7.3585 11.8457 7.16321 11.6831L5.0939 9.96203C4.91304 9.81084 4.78702 9.59751 4.73795 9.35623C4.42818 7.85364 3.08135 2.16017 0 0L8.19257 2.96479C8.3946 3.03832 8.56872 3.18019 8.68897 3.36969L11.2085 7.35865C11.398 7.65896 11.8088 7.65896 11.9983 7.35865Z" fill="#081014"/>
</g>
<path d="M56.638 4.082V6.386H48.574V18.482H46.27V6.386H38.206V4.082H56.638ZM76.602 18.482H74.28V11.66H61.86V18.482H59.538V4.082H61.86V9.338H74.28V4.082H76.602V18.482ZM95.8251 6.422H82.1451V9.374H94.6731V11.678H82.1451V16.196H95.8251V18.5L79.8411 18.518V4.118H95.8251V6.422ZM128.674 14.414C128.674 16.79 126.262 18.59 121.276 18.59C119.98 18.59 116.956 18.464 112.762 17.186L113.446 14.99C116.2 15.836 118.918 16.286 121.258 16.286H121.276C122.5 16.286 126.1 16.124 126.1 14.414C126.1 10.76 112.528 14.432 112.492 8.132C112.51 5.756 114.904 3.956 119.89 3.956C121.186 3.956 124.21 4.064 128.404 5.36L127.72 7.556C124.732 6.638 122.05 6.26 119.89 6.26C118.702 6.26 115.066 6.404 115.066 8.132C115.084 11.768 128.674 8.114 128.674 14.414ZM147.663 6.422H133.983V9.374H146.511V11.678H133.983V16.196H147.663V18.5L131.679 18.518V4.118H147.663V6.422ZM166.156 15.782V4.118H168.46V18.518H165.814L153.196 6.872V18.518H150.892V4.118H153.52L166.156 15.782ZM189.757 4.082V6.386H181.693V18.482H179.389V6.386H171.325V4.082H189.757ZM194.961 4.1V18.5H192.639V4.1H194.961ZM213.459 15.782V4.118H215.763V18.518H213.117L200.499 6.872V18.518H198.195V4.118H200.823L213.459 15.782ZM229.878 4.082L238.968 18.5H236.394L234.522 15.512H222.66L220.788 18.5H218.214L227.304 4.082H229.878ZM224.118 13.208H233.064L228.582 6.134L224.118 13.208ZM243.723 18.5V18.518H241.419V4.118H243.723V16.196H257.565V18.5H243.723ZM262.502 18.5V11.75L253.196 4.118H256.616L263.654 9.86L270.638 4.118H274.112L264.806 11.732V18.5H262.502ZM299.731 4.01C304.933 4.01 309.325 7.178 309.325 11.282C309.325 15.386 304.933 18.536 299.731 18.536C294.511 18.536 290.119 15.368 290.119 11.282C290.119 7.16 294.529 4.01 299.731 4.01ZM299.731 16.232C303.799 16.232 306.985 13.91 306.985 11.282C306.985 8.654 303.817 6.314 299.731 6.314C295.645 6.314 292.477 8.636 292.477 11.282C292.477 13.892 295.627 16.232 299.731 16.232ZM327.939 14.414C327.939 16.79 325.527 18.59 320.541 18.59C319.245 18.59 316.221 18.464 312.027 17.186L312.711 14.99C315.465 15.836 318.183 16.286 320.523 16.286H320.541C321.765 16.286 325.365 16.124 325.365 14.414C325.365 10.76 311.793 14.432 311.757 8.132C311.775 5.756 314.169 3.956 319.155 3.956C320.451 3.956 323.475 4.064 327.669 5.36L326.985 7.556C323.997 6.638 321.315 6.26 319.155 6.26C317.967 6.26 314.331 6.404 314.331 8.132C314.349 11.768 327.939 8.114 327.939 14.414ZM330.891 5.702V4.1H338.577V5.702H335.535V10.274H333.933V5.702H330.891ZM343.707 8.15L346.389 4.1H347.937V10.274H346.353V6.98L344.409 9.932H343.023L341.079 6.998V10.274H339.477V4.1H341.043L343.707 8.15Z" fill="#081014"/>
<defs>
<clipPath id="clip0_1798_9149">
<rect width="23" height="24" fill="white"/>
</clipPath>
</defs>
</svg>
