<svg width="183" height="24" viewBox="0 0 183 24" fill="none" xmlns="http://www.w3.org/2000/svg">
<g clip-path="url(#clip0_1622_9146)">
<path d="M11.7043 7.07899L14.1348 3.2775C14.2484 3.09918 14.4126 2.96469 14.6041 2.89296C15.9986 2.36896 21.9014 0.151422 22.4363 0C22.4363 0 20.2648 0.503081 18.0294 8.92097C17.9768 9.11921 17.8689 9.29653 17.7197 9.42803L15.4806 11.3975C15.2948 11.5609 15.2995 11.8637 15.49 12.0211L17.6399 13.7884C17.8107 13.9289 17.9318 14.1261 17.9825 14.3493C18.3175 15.8256 19.7937 21.6663 22.4363 23.0879C22.4363 23.0879 14.7552 20.4699 14.4323 20.4699C14.1827 20.4699 12.4682 17.5112 11.6958 16.1554C11.5194 15.8465 11.1018 15.8356 10.9113 16.1354L8.58958 19.7925C8.39907 20.0933 8.12223 20.3195 7.80035 20.438C6.14493 21.0487 0.876507 22.9783 0.162351 23.0869C0.162351 23.0869 2.4484 22.4533 4.49139 14.3204C4.54207 14.1171 4.65093 13.9358 4.80296 13.8013L6.99798 11.8617C7.18285 11.6984 7.17816 11.3955 6.98765 11.2391L4.96906 9.58344C4.79263 9.43799 4.6697 9.23278 4.62184 9.00066C4.31966 7.55518 3.00584 2.07807 0 0L7.99179 2.85212C8.18886 2.92285 8.35872 3.05933 8.47603 3.24163L10.9338 7.07899C11.1187 7.36789 11.5194 7.36789 11.7043 7.07899Z" fill="white"/>
</g>
<path d="M42.3278 15.7111C42.3278 18.0317 39.9999 19.7897 35.1877 19.7897C33.9369 19.7897 31.0183 19.6666 26.9705 18.4184L27.6307 16.2737C30.2887 17.0999 32.9119 17.5394 35.1704 17.5394H35.1877C36.3691 17.5394 39.8436 17.3812 39.8436 15.7111C39.8436 12.1424 26.7447 15.7287 26.71 9.57569C26.7273 7.25513 29.0379 5.49713 33.8501 5.49713C35.1009 5.49713 38.0195 5.60261 42.0673 6.86837L41.4071 9.01313C38.5233 8.11655 35.9348 7.74737 33.8501 7.74737C32.7035 7.74737 29.1942 7.88801 29.1942 9.57569C29.2116 13.1268 42.3278 9.55811 42.3278 15.7111Z" fill="white"/>
<path d="M60.6553 7.90559H47.4522V10.7887H59.5435V13.0389H47.4522V17.4515H60.6553V19.7018L45.2285 19.7193V5.65535H60.6553V7.90559Z" fill="white"/>
<path d="M78.5035 17.0472V5.65535H80.7272V19.7193H78.1734L65.9953 8.34509V19.7193H63.7716V5.65535H66.308L78.5035 17.0472Z" fill="white"/>
<path d="M101.282 5.62019V7.87043H93.4991V19.6842H91.2754V7.87043H83.4925V5.62019H101.282Z" fill="white"/>
<path d="M106.305 5.63777V19.7018H104.063V5.63777H106.305Z" fill="white"/>
<path d="M124.157 17.0472V5.65535H126.381V19.7193H123.827L111.649 8.34509V19.7193H109.425V5.65535H111.962L124.157 17.0472Z" fill="white"/>
<path d="M140.004 5.62019L148.777 19.7018H146.293L144.486 16.7835H133.038L131.231 19.7018H128.747L137.52 5.62019H140.004ZM134.445 14.5332H143.079L138.753 7.62431L134.445 14.5332Z" fill="white"/>
<path d="M153.367 19.7018V19.7193H151.143V5.65535H153.367V17.4515H166.726V19.7018H153.367Z" fill="white"/>
<path d="M171.491 19.7018V13.1093L162.509 5.65535H165.81L172.602 11.2634L179.343 5.65535H182.696L173.714 13.0917V19.7018H171.491Z" fill="white"/>
<defs>
<clipPath id="clip0_1622_9146">
<rect width="22.4363" height="23.0879" fill="white"/>
</clipPath>
</defs>
</svg>
