<svg width="236" height="121" viewBox="0 0 236 121" fill="none" xmlns="http://www.w3.org/2000/svg">
<rect width="236" height="120.59" fill="white"/>
<g clip-path="url(#clip0_1799_9329)">
<mask id="mask0_1799_9329" style="mask-type:alpha" maskUnits="userSpaceOnUse" x="204" y="12" width="20" height="20">
<g clip-path="url(#clip1_1799_9329)">
<path d="M209.416 16.5835V18.2502H216.575L208.583 26.2418L209.758 27.4168L217.75 19.4252V26.5835H219.416V16.5835H209.416Z" fill="black"/>
</g>
</mask>
<g mask="url(#mask0_1799_9329)">
<rect x="204" y="12" width="20" height="20" fill="#081014"/>
</g>
</g>
<path d="M18.8 102.288C17.536 102.288 16.464 102.048 15.568 101.552C13.728 100.608 12.688 98.784 12.688 96.416C12.688 95.216 12.944 94.192 13.456 93.312C14.448 91.568 16.32 90.512 18.752 90.512C21.712 90.512 23.552 91.744 24.24 94.208H22.608C21.968 92.576 20.8 91.888 18.752 91.888C17.84 91.888 17.056 92.08 16.4 92.448C15.072 93.2 14.32 94.576 14.32 96.416C14.32 97.328 14.496 98.112 14.864 98.8C15.584 100.144 16.96 100.912 18.8 100.912C21.056 100.912 22.48 100.224 22.912 98.48V97.552H19.184V96.224H24.384V102H23.168L22.912 100.752C22.032 101.744 20.56 102.288 18.8 102.288ZM30.4991 102.256C26.2111 102.256 25.8591 99.008 25.8591 98.032C25.8591 97.136 26.0511 96.384 26.4351 95.712C27.2031 94.416 28.5951 93.632 30.3871 93.632C33.1551 93.632 34.7711 95.136 34.7711 97.728V98.352H27.4271C27.6031 100.096 28.6911 101.056 30.5311 101.056C32.0671 101.056 32.9471 100.448 33.2191 99.248H34.7391C34.4031 101.2 32.8831 102.256 30.4991 102.256ZM27.4111 97.248H33.3151C33.2511 95.552 32.3071 94.8 30.3711 94.8C29.6831 94.8 29.1391 94.896 28.7551 95.12C27.9231 95.584 27.5551 96.4 27.4111 97.248ZM40.2219 102.176C38.3179 102.176 37.1979 101.216 37.1979 99.632V95.04H35.5979V93.888H37.1979V91.696H38.6859V93.888H41.4699V95.04H38.6859V99.632C38.6859 100.528 39.2619 100.976 40.4779 100.976C40.8459 100.976 41.1499 100.96 41.4699 100.88V102.064C41.0699 102.144 40.6699 102.176 40.2219 102.176ZM50.4563 102.256C47.8003 102.256 46.3763 101.344 46.2163 99.68H47.6243C47.7523 100.64 48.7283 101.104 50.5043 101.104C52.1523 101.104 53.2403 100.72 53.2403 99.92C53.2403 99.312 52.6003 98.928 51.2563 98.624L48.9043 98.096C47.3043 97.744 46.5363 96.976 46.5363 95.856C46.5363 94.336 47.9443 93.632 50.1843 93.632C52.5683 93.632 54.2163 94.416 54.3923 96.112H53.0163C52.8563 95.152 51.7043 94.8 50.1683 94.8C48.8403 94.784 47.9123 95.056 47.9123 95.808C47.9123 96.384 48.5683 96.816 49.6403 97.056L51.9603 97.584C53.7203 97.984 54.6323 98.688 54.6323 99.856C54.6323 101.36 53.1123 102.256 50.4563 102.256ZM60.0656 102.176C58.1616 102.176 57.0416 101.216 57.0416 99.632V95.04H55.4416V93.888H57.0416V91.696H58.5296V93.888H61.3136V95.04H58.5296V99.632C58.5296 100.528 59.1056 100.976 60.3216 100.976C60.6896 100.976 60.9936 100.96 61.3136 100.88V102.064C60.9136 102.144 60.5136 102.176 60.0656 102.176ZM66.1731 102.256C65.3251 102.256 64.5891 102.08 63.9651 101.712C62.7171 101.04 62.0131 99.696 62.0131 98.016C62.0131 97.136 62.1891 96.384 62.5571 95.712C63.2931 94.416 64.6211 93.632 66.3331 93.632C67.8691 93.632 69.0371 94.192 69.8371 95.264V93.888H71.2771V102H70.0451L69.7891 100.544C69.0691 101.6 67.7091 102.256 66.1731 102.256ZM66.6371 101.056C67.2451 101.056 67.7891 100.928 68.2691 100.672C69.2131 100.16 69.8051 99.296 69.8051 98.208V97.728C69.8051 97.168 69.6771 96.656 69.4211 96.24C68.8931 95.36 67.9651 94.864 66.7491 94.864C64.7011 94.864 63.5811 95.936 63.5811 98C63.5811 99.92 64.7171 101.056 66.6371 101.056ZM74.5883 102H73.1003V93.888H74.3163L74.5723 95.408C75.3883 94.304 76.4123 93.744 77.6443 93.744C77.8843 93.744 78.1723 93.776 78.5083 93.824V95.104C78.2043 95.056 77.7563 95.024 77.5163 95.024C76.6683 95.024 75.9643 95.28 75.4203 95.808C74.8603 96.32 74.5883 96.88 74.5883 97.568V102ZM83.5188 102.176C81.6148 102.176 80.4948 101.216 80.4948 99.632V95.04H78.8948V93.888H80.4948V91.696H81.9828V93.888H84.7668V95.04H81.9828V99.632C81.9828 100.528 82.5588 100.976 83.7748 100.976C84.1428 100.976 84.4468 100.96 84.7668 100.88V102.064C84.3668 102.144 83.9668 102.176 83.5188 102.176ZM90.2023 102.256C85.9143 102.256 85.5623 99.008 85.5623 98.032C85.5623 97.136 85.7543 96.384 86.1383 95.712C86.9062 94.416 88.2983 93.632 90.0903 93.632C92.8583 93.632 94.4743 95.136 94.4743 97.728V98.352H87.1303C87.3063 100.096 88.3943 101.056 90.2343 101.056C91.7703 101.056 92.6503 100.448 92.9223 99.248H94.4423C94.1063 101.2 92.5863 102.256 90.2023 102.256ZM87.1143 97.248H93.0183C92.9543 95.552 92.0103 94.8 90.0743 94.8C89.3863 94.8 88.8423 94.896 88.4583 95.12C87.6263 95.584 87.2582 96.4 87.1143 97.248ZM99.957 102.256C99.109 102.256 98.373 102.08 97.749 101.712C96.501 101.04 95.781 99.696 95.781 98.016C95.781 97.136 95.973 96.384 96.341 95.712C97.077 94.416 98.405 93.632 100.117 93.632C101.637 93.632 102.789 94.16 103.573 95.2V90.8H105.061V102H103.845L103.589 100.512C102.837 101.584 101.493 102.256 99.957 102.256ZM100.421 101.056C101.013 101.056 101.557 100.928 102.037 100.656C102.981 100.144 103.589 99.248 103.589 98.208V97.728C103.589 97.168 103.461 96.656 103.205 96.24C102.677 95.36 101.749 94.864 100.517 94.864C98.485 94.864 97.349 95.936 97.349 98C97.349 99.92 98.501 101.056 100.421 101.056Z" fill="#081014"/>
<defs>
<clipPath id="clip0_1799_9329">
<rect width="20" height="20" fill="white" transform="translate(204 12)"/>
</clipPath>
<clipPath id="clip1_1799_9329">
<rect width="20" height="20" fill="white" transform="translate(204 12)"/>
</clipPath>
</defs>
</svg>
