<svg width="176" height="24" viewBox="0 0 176 24" fill="none" xmlns="http://www.w3.org/2000/svg">
<path d="M121.468 18.288C118.38 18.288 115.58 15.936 115.58 12.4C115.58 8.88 118.38 6.512 121.468 6.512C124.572 6.512 127.356 8.88 127.356 12.4C127.356 15.936 124.572 18.288 121.468 18.288ZM121.468 17.12C124.076 17.12 126.188 15.104 126.188 12.4C126.188 9.696 124.076 7.68 121.468 7.68C118.828 7.68 116.748 9.696 116.748 12.4C116.748 15.104 118.828 17.12 121.468 17.12ZM121.676 15.936C119.676 15.936 118.348 14.368 118.348 12.368C118.348 10.336 119.596 8.816 121.644 8.816C123.116 8.816 124.284 9.68 124.492 11.264H123.228C123.068 10.544 122.428 10.064 121.612 10.064C120.348 10.064 119.676 11.04 119.676 12.368C119.676 13.664 120.428 14.672 121.676 14.672C122.444 14.672 123.116 14.24 123.228 13.408H124.54C124.284 14.992 123.116 15.936 121.676 15.936ZM141.524 18H132.516V17.936C132.516 15.744 134.132 14.048 136.484 12.672C138.644 11.424 139.22 10.992 139.22 9.856C139.22 8.608 138.372 7.808 136.852 7.808C135.332 7.808 134.452 8.64 134.212 10.128H132.596C132.804 8.08 134.244 6.512 136.884 6.512C139.652 6.512 140.916 8.112 140.916 9.84C140.916 11.68 139.748 12.464 137.652 13.664C135.924 14.608 134.772 15.68 134.468 16.64H141.524V18ZM147.829 18.288C144.517 18.288 142.869 16.32 142.869 12.4C142.869 8.56 144.565 6.512 147.829 6.512C151.125 6.512 152.757 8.48 152.757 12.368C152.757 16.208 151.045 18.288 147.829 18.288ZM147.829 16.912C150.021 16.912 151.141 15.424 151.141 12.368C151.141 9.376 150.021 7.888 147.829 7.888C145.573 7.888 144.501 9.376 144.501 12.4C144.501 15.424 145.573 16.912 147.829 16.912ZM163.29 18H154.282V17.936C154.282 15.744 155.898 14.048 158.25 12.672C160.41 11.424 160.986 10.992 160.986 9.856C160.986 8.608 160.138 7.808 158.618 7.808C157.098 7.808 156.218 8.64 155.978 10.128H154.362C154.57 8.08 156.01 6.512 158.65 6.512C161.418 6.512 162.682 8.112 162.682 9.84C162.682 11.68 161.514 12.464 159.418 13.664C157.69 14.608 156.538 15.68 156.234 16.64H163.29V18ZM169.675 18.288C166.651 18.288 164.955 16.432 164.955 13.12C164.955 8.848 166.731 6.512 169.979 6.512C172.155 6.512 173.467 7.36 173.915 9.024L172.507 9.28C172.059 8.32 171.227 7.824 169.963 7.824C167.867 7.824 166.747 9.264 166.571 11.584L166.507 12.24C167.275 11.28 168.427 10.784 169.995 10.784C172.763 10.784 174.299 12.128 174.299 14.448C174.299 15.216 174.091 15.872 173.723 16.448C172.955 17.616 171.515 18.288 169.675 18.288ZM169.675 16.96C171.515 16.96 172.747 15.984 172.747 14.48C172.747 12.848 171.723 12.032 169.723 12.032C167.947 12.032 166.699 12.928 166.699 14.32C166.699 14.848 166.827 15.312 167.083 15.68C167.595 16.496 168.507 16.96 169.675 16.96Z" fill="white"/>
<path d="M11.2447 15.1464C11.2447 16.77 9.5686 18 6.10389 18C5.20332 18 3.10198 17.9139 0.18762 17.0406L0.662922 15.54C2.57664 16.1181 4.46535 16.4256 6.09138 16.4256H6.10389C6.95443 16.4256 9.45603 16.3149 9.45603 15.1464C9.45603 12.6494 0.0250159 15.1587 0 10.8536C0.012508 9.23001 1.67607 8 5.14078 8C6.04135 8 8.14269 8.0738 11.057 8.95941L10.5817 10.46C8.50542 9.83272 6.64173 9.57442 5.14078 9.57442C4.31525 9.57442 1.78864 9.67282 1.78864 10.8536C1.80115 13.3383 11.2447 10.8413 11.2447 15.1464Z" fill="white"/>
<path d="M24.4402 9.68512H14.9341V11.7023H23.6397V13.2768H14.9341V16.3641H24.4402V17.9385L13.3331 17.9508V8.1107H24.4402V9.68512Z" fill="white"/>
<path d="M37.2907 16.0812V8.1107H38.8917V17.9508H37.053L28.2849 9.99262V17.9508H26.6839V8.1107H28.5101L37.2907 16.0812Z" fill="white"/>
<path d="M53.6909 8.0861V9.66052H48.0873V17.9262H46.4863V9.66052H40.8827V8.0861H53.6909Z" fill="white"/>
<path d="M57.307 8.0984V17.9385H55.6935V8.0984H57.307Z" fill="white"/>
<path d="M70.1607 16.0812V8.1107H71.7617V17.9508H69.9231L61.155 9.99262V17.9508H59.554V8.1107H61.3801L70.1607 16.0812Z" fill="white"/>
<path d="M81.5702 8.0861L87.8868 17.9385H86.0981L84.7973 15.8967H76.5545L75.2537 17.9385H73.4651L79.7816 8.0861H81.5702ZM77.5677 14.3223H83.7841L80.6697 9.48831L77.5677 14.3223Z" fill="white"/>
<path d="M91.1912 17.9385V17.9508H89.5902V8.1107H91.1912V16.3641H100.81V17.9385H91.1912Z" fill="white"/>
<path d="M104.24 17.9385V13.326L97.7734 8.1107H100.15L105.041 12.0344L109.894 8.1107H112.308L105.841 13.3137V17.9385H104.24Z" fill="white"/>
</svg>
