<svg width="679" height="61" viewBox="0 0 679 61" fill="none" xmlns="http://www.w3.org/2000/svg">
<rect width="678.3" height="61" fill="white"/>
<path d="M22.8278 36H21.3398V27.888H22.5558L22.8118 29.392C23.8518 28.128 25.0038 27.632 26.4118 27.632C28.6998 27.632 29.8358 28.704 29.8358 30.768V36H28.3478V31.04C28.3478 29.536 27.6598 28.896 26.0278 28.896C25.1638 28.896 24.2518 29.232 23.6438 29.824C23.0998 30.32 22.8278 30.88 22.8278 31.568V36ZM35.5979 36.256C34.7499 36.256 34.0139 36.08 33.3899 35.712C32.1419 35.04 31.4379 33.696 31.4379 32.016C31.4379 31.136 31.6139 30.384 31.9819 29.712C32.7179 28.416 34.0459 27.632 35.7579 27.632C37.2939 27.632 38.4619 28.192 39.2619 29.264V27.888H40.7019V36H39.4699L39.2139 34.544C38.4939 35.6 37.1339 36.256 35.5979 36.256ZM36.0619 35.056C36.6699 35.056 37.2139 34.928 37.6939 34.672C38.6379 34.16 39.2299 33.296 39.2299 32.208V31.728C39.2299 31.168 39.1019 30.656 38.8459 30.24C38.3179 29.36 37.3899 28.864 36.1739 28.864C34.1259 28.864 33.0059 29.936 33.0059 32C33.0059 33.92 34.1419 35.056 36.0619 35.056ZM44.1251 36H42.6371V27.888H43.8531L44.1091 29.392C44.9731 28.224 46.0451 27.632 47.3251 27.632C48.8451 27.632 49.8211 28.224 50.1891 29.36C51.1491 28.176 52.1891 27.632 53.6291 27.632C55.7091 27.632 56.7331 28.704 56.7331 30.768V36H55.2451V31.04C55.2451 29.552 54.6531 28.896 53.2451 28.896C52.4771 28.896 51.7731 29.168 51.1811 29.728C50.6851 30.176 50.4291 30.672 50.4291 31.28V36H48.9411V31.04C48.9411 29.552 48.3491 28.896 46.9411 28.896C46.1731 28.896 45.4691 29.2 44.8771 29.824C44.3811 30.32 44.1251 30.88 44.1251 31.568V36ZM63.0802 36.256C58.7922 36.256 58.4402 33.008 58.4402 32.032C58.4402 31.136 58.6322 30.384 59.0162 29.712C59.7842 28.416 61.1762 27.632 62.9682 27.632C65.7362 27.632 67.3522 29.136 67.3522 31.728V32.352H60.0082C60.1842 34.096 61.2722 35.056 63.1122 35.056C64.6482 35.056 65.5282 34.448 65.8002 33.248H67.3202C66.9842 35.2 65.4642 36.256 63.0802 36.256ZM59.9922 31.248H65.8962C65.8322 29.552 64.8882 28.8 62.9522 28.8C62.2642 28.8 61.7202 28.896 61.3362 29.12C60.5042 29.584 60.1362 30.4 59.9922 31.248ZM76.0669 39.36C74.5309 39.36 73.2029 39.104 72.0829 38.608C69.8749 37.616 68.6589 35.712 68.6589 33.136C68.6589 30.912 69.5709 28.992 71.1229 27.616C72.6749 26.24 74.8029 25.456 77.2829 25.456C78.7869 25.456 80.0989 25.696 81.2189 26.16C83.4269 27.152 84.6589 28.928 84.6589 31.376C84.6589 32.288 84.5149 33.136 84.1949 33.84C83.5389 35.28 82.3389 36.16 80.8189 36.16C79.5069 36.16 78.8189 35.712 78.6429 34.736C78.0029 35.616 76.9149 36.16 75.6669 36.16C73.7469 36.16 72.5629 34.992 72.5629 33.12C72.5629 32.272 72.7389 31.552 73.1069 30.896C73.8109 29.616 75.1069 28.832 76.6589 28.832C77.9709 28.832 78.8189 29.248 79.2509 30.128L79.4589 28.976H80.8029L79.8909 33.824C79.8429 34.096 79.8269 34.24 79.8269 34.352C79.8269 34.912 80.1629 35.152 80.9149 35.152C81.3949 35.152 81.8429 34.992 82.2269 34.672C82.9629 34.048 83.4109 32.912 83.4109 31.488C83.4109 30.464 83.1389 29.584 82.6749 28.864C81.6509 27.36 79.7629 26.56 77.2189 26.56C75.1229 26.56 73.3309 27.216 72.0509 28.368C70.7709 29.52 70.0349 31.12 70.0349 33.008C70.0349 36.352 72.2749 38.256 76.2909 38.256C78.3549 38.256 79.6509 37.856 80.8349 36.848H82.5789C81.2829 38.512 79.1229 39.36 76.0669 39.36ZM75.9229 35.024C77.3789 35.024 78.4509 34.192 78.6589 32.928L78.8189 32.032C79.0589 30.688 78.1309 29.968 76.8189 29.968C76.2749 29.968 75.7949 30.096 75.3629 30.352C74.5149 30.848 74.0029 31.824 74.0029 33.024C74.0029 34.288 74.6749 35.024 75.9229 35.024ZM90.6427 36.256C86.3547 36.256 86.0027 33.008 86.0027 32.032C86.0027 31.136 86.1947 30.384 86.5787 29.712C87.3467 28.416 88.7387 27.632 90.5307 27.632C93.2987 27.632 94.9147 29.136 94.9147 31.728V32.352H87.5707C87.7467 34.096 88.8347 35.056 90.6747 35.056C92.2107 35.056 93.0907 34.448 93.3627 33.248H94.8827C94.5467 35.2 93.0267 36.256 90.6427 36.256ZM87.5547 31.248H93.4587C93.3947 29.552 92.4507 28.8 90.5147 28.8C89.8267 28.8 89.2827 28.896 88.8987 29.12C88.0667 29.584 87.6987 30.4 87.5547 31.248ZM98.1094 36H96.6214V27.888H97.8374L98.0934 29.392C98.9574 28.224 100.029 27.632 101.309 27.632C102.829 27.632 103.805 28.224 104.173 29.36C105.133 28.176 106.173 27.632 107.613 27.632C109.693 27.632 110.717 28.704 110.717 30.768V36H109.229V31.04C109.229 29.552 108.637 28.896 107.229 28.896C106.461 28.896 105.757 29.168 105.165 29.728C104.669 30.176 104.413 30.672 104.413 31.28V36H102.925V31.04C102.925 29.552 102.333 28.896 100.925 28.896C100.157 28.896 99.4534 29.2 98.8614 29.824C98.3654 30.32 98.1094 30.88 98.1094 31.568V36ZM116.489 36.256C115.641 36.256 114.905 36.08 114.281 35.712C113.033 35.04 112.329 33.696 112.329 32.016C112.329 31.136 112.505 30.384 112.873 29.712C113.609 28.416 114.937 27.632 116.649 27.632C118.185 27.632 119.353 28.192 120.153 29.264V27.888H121.593V36H120.361L120.105 34.544C119.385 35.6 118.025 36.256 116.489 36.256ZM116.953 35.056C117.561 35.056 118.105 34.928 118.585 34.672C119.529 34.16 120.121 33.296 120.121 32.208V31.728C120.121 31.168 119.993 30.656 119.737 30.24C119.209 29.36 118.281 28.864 117.065 28.864C115.017 28.864 113.897 29.936 113.897 32C113.897 33.92 115.033 35.056 116.953 35.056ZM125.112 26.384H123.528V24.8H125.112V26.384ZM125.064 36H123.576V27.888H125.064V36ZM128.767 36H127.279V24.8H128.767V36ZM132.63 36H130.95V34.128H132.63V36ZM139.066 36.256C138.106 36.256 137.29 36.08 136.57 35.728C135.162 35.056 134.362 33.712 134.362 31.984C134.362 31.088 134.57 30.336 134.97 29.68C135.77 28.384 137.258 27.632 139.146 27.632C140.138 27.632 140.97 27.808 141.69 28.16C142.698 28.672 143.386 29.488 143.69 30.576H142.074C141.626 29.456 140.618 28.864 139.13 28.864C137.114 28.864 135.93 29.984 135.93 31.952C135.93 33.888 137.098 35.056 139.098 35.056C140.618 35.056 141.658 34.4 142.09 33.264H143.706C143.242 34.88 141.658 36.256 139.066 36.256ZM149.613 36.256C148.653 36.256 147.837 36.08 147.117 35.728C145.709 35.056 144.909 33.712 144.909 31.984C144.909 31.088 145.117 30.336 145.517 29.68C146.317 28.384 147.805 27.632 149.693 27.632C150.685 27.632 151.517 27.808 152.237 28.16C153.629 28.864 154.413 30.16 154.413 31.936C154.413 32.784 154.237 33.568 153.837 34.192C153.037 35.504 151.565 36.256 149.613 36.256ZM149.645 35.056C151.677 35.056 152.845 33.904 152.845 31.968C152.845 29.968 151.693 28.864 149.677 28.864C147.661 28.864 146.477 29.984 146.477 31.952C146.477 33.888 147.645 35.056 149.645 35.056ZM157.625 36H156.137V27.888H157.353L157.609 29.392C158.473 28.224 159.545 27.632 160.825 27.632C162.345 27.632 163.321 28.224 163.689 29.36C164.649 28.176 165.689 27.632 167.129 27.632C169.209 27.632 170.233 28.704 170.233 30.768V36H168.745V31.04C168.745 29.552 168.153 28.896 166.745 28.896C165.977 28.896 165.273 29.168 164.681 29.728C164.185 30.176 163.929 30.672 163.929 31.28V36H162.441V31.04C162.441 29.552 161.849 28.896 160.441 28.896C159.673 28.896 158.969 29.2 158.377 29.824C157.881 30.32 157.625 30.88 157.625 31.568V36Z" fill="#707070"/>
<rect width="120" height="51" transform="translate(553.3 5)" fill="#081014"/>
<path d="M577.43 36.288C573.894 36.288 571.958 34.96 571.814 32.464H573.414C573.462 34.08 574.934 34.928 577.43 34.928C579.462 34.928 581.11 34.416 581.11 33.168C581.11 32.288 580.31 31.744 578.614 31.344L575.43 30.608C573.35 30.128 572.326 29.088 572.326 27.584C572.326 25.664 574.134 24.512 577.062 24.512C580.102 24.512 582.102 25.792 582.294 27.952H580.71C580.598 26.608 579.142 25.872 577.03 25.872C575.206 25.872 573.91 26.416 573.91 27.488C573.91 28.336 574.79 28.912 576.246 29.264L579.35 30.016C581.702 30.592 582.726 31.52 582.726 33.056C582.726 35.104 580.838 36.288 577.43 36.288ZM587.76 36.256C585.648 36.256 584.48 35.152 584.48 33.184V27.888H585.968V32.912C585.968 34.336 586.672 35.008 588.144 35.008C589.008 35.008 589.808 34.704 590.48 34.08C591.04 33.616 591.312 33.024 591.312 32.336V27.888H592.8V36H591.584L591.328 34.496C590.4 35.664 589.216 36.256 587.76 36.256ZM599.815 36.256C598.295 36.256 597.143 35.728 596.343 34.688L596.087 36H594.871V24.8H596.359V29.344C597.079 28.288 598.455 27.632 599.975 27.632C600.791 27.632 601.559 27.808 602.183 28.16C603.431 28.864 604.135 30.192 604.135 31.904C604.135 32.752 603.959 33.52 603.607 34.16C602.871 35.472 601.543 36.256 599.815 36.256ZM599.399 35.056C601.479 35.056 602.567 33.952 602.567 31.92C602.567 29.984 601.431 28.864 599.511 28.864C598.935 28.864 598.391 28.96 597.911 29.216C596.951 29.744 596.343 30.608 596.343 31.68V32.16C596.343 32.72 596.471 33.232 596.743 33.632C597.255 34.528 598.199 35.056 599.399 35.056ZM609.6 36.256C606.944 36.256 605.52 35.344 605.36 33.68H606.768C606.896 34.64 607.872 35.104 609.648 35.104C611.296 35.104 612.384 34.72 612.384 33.92C612.384 33.312 611.744 32.928 610.4 32.624L608.048 32.096C606.448 31.744 605.68 30.976 605.68 29.856C605.68 28.336 607.088 27.632 609.328 27.632C611.712 27.632 613.36 28.416 613.536 30.112H612.16C612 29.152 610.848 28.8 609.312 28.8C607.984 28.784 607.056 29.056 607.056 29.808C607.056 30.384 607.712 30.816 608.784 31.056L611.104 31.584C612.864 31.984 613.776 32.688 613.776 33.856C613.776 35.36 612.256 36.256 609.6 36.256ZM619.769 36.256C618.809 36.256 617.993 36.08 617.273 35.728C615.865 35.056 615.065 33.712 615.065 31.984C615.065 31.088 615.273 30.336 615.673 29.68C616.473 28.384 617.961 27.632 619.849 27.632C620.841 27.632 621.673 27.808 622.393 28.16C623.401 28.672 624.089 29.488 624.393 30.576H622.777C622.329 29.456 621.321 28.864 619.833 28.864C617.817 28.864 616.633 29.984 616.633 31.952C616.633 33.888 617.801 35.056 619.801 35.056C621.321 35.056 622.361 34.4 622.793 33.264H624.409C623.945 34.88 622.361 36.256 619.769 36.256ZM627.388 36H625.9V27.888H627.116L627.372 29.408C628.188 28.304 629.212 27.744 630.444 27.744C630.684 27.744 630.972 27.776 631.308 27.824V29.104C631.004 29.056 630.556 29.024 630.316 29.024C629.468 29.024 628.764 29.28 628.22 29.808C627.66 30.32 627.388 30.88 627.388 31.568V36ZM634.159 26.384H632.575V24.8H634.159V26.384ZM634.111 36H632.623V27.888H634.111V36ZM641.19 36.256C639.67 36.256 638.518 35.728 637.718 34.688L637.462 36H636.246V24.8H637.734V29.344C638.454 28.288 639.83 27.632 641.35 27.632C642.166 27.632 642.934 27.808 643.558 28.16C644.806 28.864 645.51 30.192 645.51 31.904C645.51 32.752 645.334 33.52 644.982 34.16C644.246 35.472 642.918 36.256 641.19 36.256ZM640.774 35.056C642.854 35.056 643.942 33.952 643.942 31.92C643.942 29.984 642.806 28.864 640.886 28.864C640.31 28.864 639.766 28.96 639.286 29.216C638.326 29.744 637.718 30.608 637.718 31.68V32.16C637.718 32.72 637.846 33.232 638.118 33.632C638.63 34.528 639.574 35.056 640.774 35.056ZM651.471 36.256C647.183 36.256 646.831 33.008 646.831 32.032C646.831 31.136 647.023 30.384 647.407 29.712C648.175 28.416 649.567 27.632 651.359 27.632C654.127 27.632 655.743 29.136 655.743 31.728V32.352H648.399C648.575 34.096 649.663 35.056 651.503 35.056C653.039 35.056 653.919 34.448 654.191 33.248H655.711C655.375 35.2 653.855 36.256 651.471 36.256ZM648.383 31.248H654.287C654.223 29.552 653.279 28.8 651.343 28.8C650.655 28.8 650.111 28.896 649.727 29.12C648.895 29.584 648.527 30.4 648.383 31.248Z" fill="white"/>
</svg>
