<svg width="126" height="51" viewBox="0 0 126 51" fill="none" xmlns="http://www.w3.org/2000/svg">
<rect width="125.06" height="50.41" fill="white"/>
<rect x="0.5" y="0.5" width="124.06" height="49.41" stroke="white" stroke-opacity="0.12"/>
<path d="M13.6223 31.205H8.35827V20.005H13.3983C16.3583 20.005 17.8463 20.965 17.8463 22.869C17.8463 24.085 17.2223 24.885 15.9903 25.285C17.5263 25.781 18.2943 26.693 18.2943 27.957C18.2943 30.085 16.6783 31.205 13.6223 31.205ZM9.89427 21.317V24.693H13.5103C15.3983 24.693 16.2463 24.133 16.2463 22.933C16.2463 21.813 15.3663 21.317 13.3183 21.317H9.89427ZM9.89427 26.005V29.893H13.5423C15.7183 29.893 16.6623 29.317 16.6623 27.989C16.6623 26.677 15.6223 26.005 13.5903 26.005H9.89427ZM24.3121 31.461C23.3521 31.461 22.5361 31.285 21.8161 30.933C20.4081 30.261 19.6081 28.917 19.6081 27.189C19.6081 26.293 19.8161 25.541 20.2161 24.885C21.0161 23.589 22.5041 22.837 24.3921 22.837C25.3841 22.837 26.2161 23.013 26.9361 23.365C28.3281 24.069 29.1121 25.365 29.1121 27.141C29.1121 27.989 28.9361 28.773 28.5361 29.397C27.7361 30.709 26.2641 31.461 24.3121 31.461ZM24.3441 30.261C26.3761 30.261 27.5441 29.109 27.5441 27.173C27.5441 25.173 26.3921 24.069 24.3761 24.069C22.3601 24.069 21.1761 25.189 21.1761 27.157C21.1761 29.093 22.3441 30.261 24.3441 30.261ZM35.1403 31.461C34.1803 31.461 33.3643 31.285 32.6443 30.933C31.2363 30.261 30.4363 28.917 30.4363 27.189C30.4363 26.293 30.6443 25.541 31.0443 24.885C31.8443 23.589 33.3323 22.837 35.2203 22.837C36.2123 22.837 37.0443 23.013 37.7643 23.365C39.1563 24.069 39.9403 25.365 39.9403 27.141C39.9403 27.989 39.7643 28.773 39.3643 29.397C38.5643 30.709 37.0923 31.461 35.1403 31.461ZM35.1723 30.261C37.2043 30.261 38.3723 29.109 38.3723 27.173C38.3723 25.173 37.2203 24.069 35.2043 24.069C33.1883 24.069 32.0043 25.189 32.0043 27.157C32.0043 29.093 33.1723 30.261 35.1723 30.261ZM43.1524 31.205H41.6644V20.005H43.1524V26.373L47.9204 23.093H50.1924L45.0244 26.677L50.1924 31.205H47.9844L43.8724 27.541L43.1524 28.069V31.205ZM58.9378 31.461C58.0898 31.461 57.3538 31.285 56.7298 30.917C55.4818 30.245 54.7778 28.901 54.7778 27.221C54.7778 26.341 54.9538 25.589 55.3218 24.917C56.0578 23.621 57.3858 22.837 59.0978 22.837C60.6338 22.837 61.8018 23.397 62.6018 24.469V23.093H64.0418V31.205H62.8098L62.5538 29.749C61.8338 30.805 60.4738 31.461 58.9378 31.461ZM59.4018 30.261C60.0098 30.261 60.5538 30.133 61.0338 29.877C61.9778 29.365 62.5698 28.501 62.5698 27.413V26.933C62.5698 26.373 62.4418 25.861 62.1858 25.445C61.6578 24.565 60.7298 24.069 59.5138 24.069C57.4658 24.069 56.3458 25.141 56.3458 27.205C56.3458 29.125 57.4818 30.261 59.4018 30.261ZM74.6638 31.205H70.2958V20.005H75.0798C79.1758 20.005 81.4318 21.989 81.4318 25.621C81.4318 29.189 79.0318 31.205 74.6638 31.205ZM71.8638 21.365V29.845H74.7278C78.0718 29.845 79.7998 28.389 79.7998 25.621C79.7998 22.773 78.2318 21.365 75.0798 21.365H71.8638ZM87.4513 31.461C83.1633 31.461 82.8113 28.213 82.8113 27.237C82.8113 26.341 83.0033 25.589 83.3873 24.917C84.1553 23.621 85.5473 22.837 87.3393 22.837C90.1073 22.837 91.7233 24.341 91.7233 26.933V27.557H84.3793C84.5553 29.301 85.6433 30.261 87.4833 30.261C89.0193 30.261 89.8993 29.653 90.1713 28.453H91.6913C91.3553 30.405 89.8353 31.461 87.4513 31.461ZM84.3633 26.453H90.2673C90.2033 24.757 89.2593 24.005 87.3233 24.005C86.6353 24.005 86.0913 24.101 85.7073 24.325C84.8753 24.789 84.5073 25.605 84.3633 26.453ZM94.918 31.205H93.43V23.093H94.646L94.902 24.597C95.766 23.429 96.838 22.837 98.118 22.837C99.638 22.837 100.614 23.429 100.982 24.565C101.942 23.381 102.982 22.837 104.422 22.837C106.502 22.837 107.526 23.909 107.526 25.973V31.205H106.038V26.245C106.038 24.757 105.446 24.101 104.038 24.101C103.27 24.101 102.566 24.373 101.974 24.933C101.478 25.381 101.222 25.877 101.222 26.485V31.205H99.734V26.245C99.734 24.757 99.142 24.101 97.734 24.101C96.966 24.101 96.262 24.405 95.67 25.029C95.174 25.525 94.918 26.085 94.918 26.773V31.205ZM113.937 31.461C112.977 31.461 112.161 31.285 111.441 30.933C110.033 30.261 109.233 28.917 109.233 27.189C109.233 26.293 109.441 25.541 109.841 24.885C110.641 23.589 112.129 22.837 114.017 22.837C115.009 22.837 115.841 23.013 116.561 23.365C117.953 24.069 118.737 25.365 118.737 27.141C118.737 27.989 118.561 28.773 118.161 29.397C117.361 30.709 115.889 31.461 113.937 31.461ZM113.969 30.261C116.001 30.261 117.169 29.109 117.169 27.173C117.169 25.173 116.017 24.069 114.001 24.069C111.985 24.069 110.801 25.189 110.801 27.157C110.801 29.093 111.969 30.261 113.969 30.261Z" fill="#081014"/>
</svg>
