<svg width="126" height="51" viewBox="0 0 126 51" fill="none" xmlns="http://www.w3.org/2000/svg">
<rect x="0.5" y="0.5" width="124.06" height="49.41" stroke="white" stroke-opacity="0.12"/>
<path d="M21.8303 31.493C20.5663 31.493 19.4943 31.253 18.5983 30.757C16.7583 29.813 15.7183 27.989 15.7183 25.621C15.7183 24.421 15.9743 23.397 16.4863 22.517C17.4783 20.773 19.3503 19.717 21.7823 19.717C24.7423 19.717 26.5823 20.949 27.2703 23.413H25.6383C24.9983 21.781 23.8303 21.093 21.7823 21.093C20.8703 21.093 20.0863 21.285 19.4303 21.653C18.1023 22.405 17.3503 23.781 17.3503 25.621C17.3503 26.533 17.5263 27.317 17.8943 28.005C18.6143 29.349 19.9903 30.117 21.8303 30.117C24.0863 30.117 25.5103 29.429 25.9423 27.685V26.757H22.2143V25.429H27.4143V31.205H26.1983L25.9423 29.957C25.0623 30.949 23.5903 31.493 21.8303 31.493ZM33.5294 31.461C29.2414 31.461 28.8894 28.213 28.8894 27.237C28.8894 26.341 29.0814 25.589 29.4654 24.917C30.2334 23.621 31.6254 22.837 33.4174 22.837C36.1854 22.837 37.8014 24.341 37.8014 26.933V27.557H30.4574C30.6334 29.301 31.7214 30.261 33.5614 30.261C35.0974 30.261 35.9774 29.653 36.2494 28.453H37.7694C37.4334 30.405 35.9134 31.461 33.5294 31.461ZM30.4414 26.453H36.3454C36.2814 24.757 35.3374 24.005 33.4014 24.005C32.7134 24.005 32.1694 24.101 31.7854 24.325C30.9534 24.789 30.5854 25.605 30.4414 26.453ZM43.2521 31.381C41.3481 31.381 40.2281 30.421 40.2281 28.837V24.245H38.6281V23.093H40.2281V20.901H41.7161V23.093H44.5001V24.245H41.7161V28.837C41.7161 29.733 42.2921 30.181 43.5081 30.181C43.8761 30.181 44.1801 30.165 44.5001 30.085V31.269C44.1001 31.349 43.7001 31.381 43.2521 31.381ZM54.9105 31.493C51.3745 31.493 49.4385 30.165 49.2945 27.669H50.8945C50.9425 29.285 52.4145 30.133 54.9105 30.133C56.9425 30.133 58.5905 29.621 58.5905 28.373C58.5905 27.493 57.7905 26.949 56.0945 26.549L52.9105 25.813C50.8305 25.333 49.8065 24.293 49.8065 22.789C49.8065 20.869 51.6145 19.717 54.5425 19.717C57.5825 19.717 59.5825 20.997 59.7745 23.157H58.1905C58.0785 21.813 56.6225 21.077 54.5105 21.077C52.6865 21.077 51.3905 21.621 51.3905 22.693C51.3905 23.541 52.2705 24.117 53.7265 24.469L56.8305 25.221C59.1825 25.797 60.2065 26.725 60.2065 28.261C60.2065 30.309 58.3185 31.493 54.9105 31.493ZM65.7209 31.381C63.8169 31.381 62.6969 30.421 62.6969 28.837V24.245H61.0969V23.093H62.6969V20.901H64.1849V23.093H66.9689V24.245H64.1849V28.837C64.1849 29.733 64.7609 30.181 65.9769 30.181C66.3449 30.181 66.6489 30.165 66.9689 30.085V31.269C66.5689 31.349 66.1689 31.381 65.7209 31.381ZM71.8284 31.461C70.9804 31.461 70.2444 31.285 69.6204 30.917C68.3724 30.245 67.6684 28.901 67.6684 27.221C67.6684 26.341 67.8444 25.589 68.2124 24.917C68.9484 23.621 70.2764 22.837 71.9884 22.837C73.5244 22.837 74.6924 23.397 75.4924 24.469V23.093H76.9324V31.205H75.7004L75.4444 29.749C74.7244 30.805 73.3644 31.461 71.8284 31.461ZM72.2924 30.261C72.9004 30.261 73.4444 30.133 73.9244 29.877C74.8684 29.365 75.4604 28.501 75.4604 27.413V26.933C75.4604 26.373 75.3324 25.861 75.0764 25.445C74.5484 24.565 73.6204 24.069 72.4044 24.069C70.3564 24.069 69.2364 25.141 69.2364 27.205C69.2364 29.125 70.3724 30.261 72.2924 30.261ZM80.2435 31.205H78.7555V23.093H79.9715L80.2275 24.613C81.0435 23.509 82.0675 22.949 83.2995 22.949C83.5395 22.949 83.8275 22.981 84.1635 23.029V24.309C83.8595 24.261 83.4115 24.229 83.1715 24.229C82.3235 24.229 81.6195 24.485 81.0755 25.013C80.5155 25.525 80.2435 26.085 80.2435 26.773V31.205ZM89.174 31.381C87.27 31.381 86.15 30.421 86.15 28.837V24.245H84.55V23.093H86.15V20.901H87.638V23.093H90.422V24.245H87.638V28.837C87.638 29.733 88.214 30.181 89.43 30.181C89.798 30.181 90.102 30.165 90.422 30.085V31.269C90.022 31.349 89.622 31.381 89.174 31.381ZM95.8575 31.461C91.5695 31.461 91.2175 28.213 91.2175 27.237C91.2175 26.341 91.4095 25.589 91.7935 24.917C92.5615 23.621 93.9535 22.837 95.7455 22.837C98.5135 22.837 100.13 24.341 100.13 26.933V27.557H92.7855C92.9615 29.301 94.0495 30.261 95.8895 30.261C97.4255 30.261 98.3055 29.653 98.5775 28.453H100.098C99.7615 30.405 98.2415 31.461 95.8575 31.461ZM92.7695 26.453H98.6735C98.6095 24.757 97.6655 24.005 95.7295 24.005C95.0415 24.005 94.4975 24.101 94.1135 24.325C93.2815 24.789 92.9135 25.605 92.7695 26.453ZM105.612 31.461C104.764 31.461 104.028 31.285 103.404 30.917C102.156 30.245 101.436 28.901 101.436 27.221C101.436 26.341 101.628 25.589 101.996 24.917C102.732 23.621 104.06 22.837 105.772 22.837C107.292 22.837 108.444 23.365 109.228 24.405V20.005H110.716V31.205H109.5L109.244 29.717C108.492 30.789 107.148 31.461 105.612 31.461ZM106.076 30.261C106.668 30.261 107.212 30.133 107.692 29.861C108.636 29.349 109.244 28.453 109.244 27.413V26.933C109.244 26.373 109.116 25.861 108.86 25.445C108.332 24.565 107.404 24.069 106.172 24.069C104.14 24.069 103.004 25.141 103.004 27.205C103.004 29.125 104.156 30.261 106.076 30.261Z" fill="white"/>
</svg>
