<svg width="246" height="31" viewBox="0 0 246 31" fill="none" xmlns="http://www.w3.org/2000/svg">
<g clip-path="url(#clip0_1798_9081)">
<path d="M15.7152 9.50492L18.9788 4.40067C19.1312 4.16124 19.3517 3.98067 19.6088 3.88436C21.4812 3.18079 29.4069 0.203314 30.1251 0C30.1251 0 27.2093 0.675483 24.2079 11.9781C24.1374 12.2443 23.9925 12.4824 23.7921 12.659L20.7857 15.3034C20.5362 15.5227 20.5425 15.9294 20.7983 16.1407L23.685 18.5136C23.9143 18.7022 24.0769 18.967 24.1449 19.2666C24.5948 21.249 26.5768 29.0912 30.1251 31C30.1251 31 19.8116 27.4848 19.3782 27.4848C19.043 27.4848 16.7409 23.5122 15.7039 21.6917C15.467 21.277 14.9063 21.2623 14.6505 21.6649L11.5332 26.5752C11.2774 26.9792 10.9057 27.2828 10.4735 27.442C8.25076 28.2619 1.17688 30.8529 0.217987 30.9987C0.217987 30.9987 3.28745 30.1479 6.03056 19.2279C6.0986 18.955 6.24477 18.7115 6.4489 18.531L9.39613 15.9267C9.64436 15.7073 9.63806 15.3007 9.38227 15.0907L6.67192 12.8676C6.43503 12.6723 6.26997 12.3968 6.20571 12.0851C5.79997 10.1443 4.03591 2.79021 0 0L10.7305 3.82952C10.9951 3.92449 11.2232 4.10774 11.3807 4.35252L14.6808 9.50492C14.929 9.89282 15.467 9.89282 15.7152 9.50492Z" fill="white"/>
</g>
<path d="M56.8333 21.0951C56.8333 24.2109 53.7076 26.5714 47.2463 26.5714C45.5669 26.5714 41.6481 26.4062 36.2132 24.7302L37.0996 21.8505C40.6684 22.9599 44.1906 23.55 47.223 23.55H47.2463C48.8325 23.55 53.4977 23.3376 53.4977 21.0951C53.4977 16.3034 35.9099 21.1187 35.8633 12.8572C35.8866 9.74137 38.989 7.38092 45.4502 7.38092C47.1297 7.38092 51.0485 7.52255 56.4834 9.22207L55.597 12.1018C51.7249 10.898 48.2494 10.4023 45.4502 10.4023C43.9107 10.4023 39.1989 10.5911 39.1989 12.8572C39.2222 17.6253 56.8333 12.8336 56.8333 21.0951Z" fill="white"/>
<path d="M81.4414 10.6147H63.7137V14.4859H79.9486V17.5073H63.7137V23.432H81.4414V26.4534L60.728 26.477V7.59336H81.4414V10.6147Z" fill="white"/>
<path d="M105.406 22.8891V7.59336H108.392V26.477H104.963L88.6114 11.2049V26.477H85.6257V7.59336H89.0313L105.406 22.8891Z" fill="white"/>
<path d="M135.991 7.54615V10.5675H125.541V26.4298H122.555V10.5675H112.105V7.54615H135.991Z" fill="white"/>
<path d="M142.734 7.56976V26.4534H139.725V7.56976H142.734Z" fill="white"/>
<path d="M166.705 22.8891V7.59336H169.691V26.477H166.262L149.91 11.2049V26.477H146.925V7.59336H150.33L166.705 22.8891Z" fill="white"/>
<path d="M187.983 7.54615L199.762 26.4534H196.426L194.001 22.535H178.629L176.203 26.4534H172.867L184.647 7.54615H187.983ZM180.518 19.5136H192.111L186.303 10.2371L180.518 19.5136Z" fill="white"/>
<path d="M205.925 26.4534V26.477H202.939V7.59336H205.925V23.432H223.862V26.4534H205.925Z" fill="white"/>
<path d="M230.259 26.4534V17.6017L218.2 7.59336H222.632L231.752 15.1232L240.802 7.59336H245.304L233.245 17.5781V26.4534H230.259Z" fill="white"/>
<defs>
<clipPath id="clip0_1798_9081">
<rect width="30.1251" height="31" fill="white"/>
</clipPath>
</defs>
</svg>
