<svg width="70" height="70" viewBox="0 0 70 70" fill="none" xmlns="http://www.w3.org/2000/svg">
<rect width="70" height="70" rx="35" fill="white"/>
<g clip-path="url(#clip0_1798_9290)">
<path d="M31.9375 30.1811V39.8195C31.9404 39.9758 32.0268 40.1188 32.1638 40.1946C32.3009 40.2698 32.4683 40.2663 32.6019 40.1853L40.4816 35.3663C40.6093 35.2888 40.6875 35.1499 40.6875 35C40.6875 34.8507 40.6093 34.7118 40.4816 34.6343L32.6019 29.8153C32.4683 29.7343 32.3009 29.7308 32.1638 29.806C32.0268 29.8813 31.9404 30.0248 31.9375 30.1811Z" fill="#081014"/>
<path d="M31.9375 30.1811V39.8195C31.9404 39.9758 32.0268 40.1188 32.1638 40.1946C32.3009 40.2698 32.4683 40.2663 32.6019 40.1853L40.4816 35.3663C40.6093 35.2888 40.6875 35.1499 40.6875 35C40.6875 34.8507 40.6093 34.7118 40.4816 34.6343L32.6019 29.8153C32.4683 29.7343 32.3009 29.7308 32.1638 29.806C32.0268 29.8813 31.9404 30.0248 31.9375 30.1811Z" stroke="#081014" stroke-width="1.75" stroke-linecap="round" stroke-linejoin="round"/>
</g>
<defs>
<clipPath id="clip0_1798_9290">
<rect width="14" height="14" fill="white" transform="translate(28 28)"/>
</clipPath>
</defs>
</svg>
