<svg width="258" height="24" viewBox="0 0 258 24" fill="none" xmlns="http://www.w3.org/2000/svg">
<g clip-path="url(#clip0_1798_9184)">
<path d="M11.9983 7.35865L14.49 3.40697C14.6064 3.22161 14.7747 3.08181 14.971 3.00725C16.4005 2.46255 22.4516 0.157404 23 0C23 0 20.7739 0.522955 18.4823 9.27339C18.4285 9.47946 18.3178 9.66379 18.1649 9.80048L15.8695 11.8478C15.679 12.0176 15.6838 12.3324 15.8791 12.496L18.0831 14.3331C18.2582 14.4791 18.3823 14.6842 18.4342 14.9161C18.7777 16.4508 20.2909 22.5223 23 24C23 24 15.1259 21.2786 14.7949 21.2786C14.539 21.2786 12.7814 18.203 11.9897 16.7936C11.8088 16.4726 11.3807 16.4612 11.1854 16.7729L8.80538 20.5744C8.61009 20.8871 8.32629 21.1222 7.99632 21.2454C6.29931 21.8802 0.898528 23.8861 0.16643 23.999C0.16643 23.999 2.50991 23.3404 4.60423 14.8861C4.65618 14.6748 4.76778 14.4864 4.92362 14.3466L7.17379 12.3303C7.36331 12.1605 7.3585 11.8457 7.16321 11.6831L5.0939 9.96203C4.91304 9.81084 4.78702 9.59751 4.73795 9.35623C4.42818 7.85364 3.08135 2.16017 0 0L8.19257 2.96479C8.3946 3.03832 8.56872 3.18019 8.68897 3.36969L11.2085 7.35865C11.398 7.65896 11.8088 7.65896 11.9983 7.35865Z" fill="#081014"/>
</g>
<path d="M56.638 4.082V6.386H48.574V18.482H46.27V6.386H38.206V4.082H56.638ZM75.54 6.422H61.86V9.374H74.388V11.678H61.86V16.196H75.54V18.5L59.556 18.518V4.118H75.54V6.422ZM94.5369 14.414C94.5369 16.79 92.1249 18.59 87.1389 18.59C85.8429 18.59 82.8189 18.464 78.6249 17.186L79.3089 14.99C82.0629 15.836 84.7809 16.286 87.1209 16.286H87.1389C88.3629 16.286 91.9629 16.124 91.9629 14.414C91.9629 10.76 78.3909 14.432 78.3549 8.132C78.3729 5.756 80.7669 3.956 85.7529 3.956C87.0489 3.956 90.0729 4.064 94.2669 5.36L93.5829 7.556C90.5949 6.638 87.9129 6.26 85.7529 6.26C84.5649 6.26 80.9289 6.404 80.9289 8.132C80.9469 11.768 94.5369 8.114 94.5369 14.414ZM115.542 4.082V6.386H107.478V18.482H105.174V6.386H97.1103V4.082H115.542ZM120.746 4.1V18.5H118.424V4.1H120.746ZM135.518 17.564L132.872 17.582L126.284 7.61V18.5H123.98V4.1H126.608L134.204 15.566L141.782 4.1H144.41V18.5H142.106V7.61L135.518 17.564ZM156.891 4.01C162.093 4.01 166.485 7.178 166.485 11.282C166.485 15.386 162.093 18.536 156.891 18.536C151.671 18.536 147.279 15.368 147.279 11.282C147.279 7.16 151.689 4.01 156.891 4.01ZM156.891 16.232C160.959 16.232 164.145 13.91 164.145 11.282C164.145 8.654 160.977 6.314 156.891 6.314C152.805 6.314 149.637 8.636 149.637 11.282C149.637 13.892 152.787 16.232 156.891 16.232ZM184.595 15.782V4.118H186.899V18.518H184.253L171.635 6.872V18.518H169.331V4.118H171.959L184.595 15.782ZM192.483 4.1V18.5H190.161V4.1H192.483ZM206.534 4.082L215.624 18.5H213.05L211.178 15.512H199.316L197.444 18.5H194.87L203.96 4.082H206.534ZM200.774 13.208H209.72L205.238 6.134L200.774 13.208ZM220.38 18.5V18.518H218.076V4.118H220.38V16.196H234.222V18.5H220.38ZM253.162 14.414C253.162 16.79 250.75 18.59 245.764 18.59C244.468 18.59 241.444 18.464 237.25 17.186L237.934 14.99C240.688 15.836 243.406 16.286 245.746 16.286H245.764C246.988 16.286 250.588 16.124 250.588 14.414C250.588 10.76 237.016 14.432 236.98 8.132C236.998 5.756 239.392 3.956 244.378 3.956C245.674 3.956 248.698 4.064 252.892 5.36L252.208 7.556C249.22 6.638 246.538 6.26 244.378 6.26C243.19 6.26 239.554 6.404 239.554 8.132C239.572 11.768 253.162 8.114 253.162 14.414Z" fill="#081014"/>
<defs>
<clipPath id="clip0_1798_9184">
<rect width="23" height="24" fill="white"/>
</clipPath>
</defs>
</svg>
