<?xml version="1.0" encoding="UTF-8"?><svg id="Layer_1" xmlns="http://www.w3.org/2000/svg" viewBox="0 0 32 32"><defs><style>.cls-1{fill:#010101;}</style></defs><path class="cls-1" d="M16.69,9.81l3.47-5.27c.16-.25,.4-.43,.67-.53,1.99-.73,10.41-3.8,11.17-4.01,0,0-3.1,.7-6.29,12.37-.08,.27-.23,.52-.44,.7l-3.19,2.73c-.26,.23-.26,.65,.01,.86l3.07,2.45c.24,.19,.42,.47,.49,.78,.48,2.05,2.58,10.14,6.35,12.11,0,0-10.95-3.63-11.42-3.63-.36,0-2.8-4.1-3.9-5.98-.25-.43-.85-.44-1.12-.03l-3.31,5.07c-.27,.42-.67,.73-1.13,.89-2.36,.85-9.87,3.52-10.89,3.67,0,0,3.26-.88,6.17-12.15,.07-.28,.23-.53,.44-.72l3.13-2.69c.26-.23,.26-.65-.02-.86l-2.88-2.3c-.25-.2-.43-.49-.5-.81C6.16,10.47,4.29,2.88,0,0L11.4,3.95c.28,.1,.52,.29,.69,.54l3.51,5.32c.26,.4,.84,.4,1.1,0Z"/></svg>