<?xml version="1.0" encoding="UTF-8"?><svg id="Layer_1" xmlns="http://www.w3.org/2000/svg" viewBox="0 0 48 48"><defs><style>.cls-1{fill:#010101;}</style></defs><path class="cls-1" d="M25.04,14.72l5.2-7.9c.24-.37,.59-.65,1-.8C34.23,4.93,46.86,.31,48,0,48,0,43.35,1.05,38.57,18.55c-.11,.41-.34,.78-.66,1.05l-4.79,4.09c-.4,.34-.39,.97,.02,1.3l4.6,3.67c.37,.29,.62,.7,.73,1.17,.72,3.07,3.87,15.21,9.53,18.17,0,0-16.43-5.44-17.12-5.44-.53,0-4.2-6.15-5.86-8.97-.38-.64-1.27-.66-1.68-.04l-4.97,7.6c-.41,.62-1,1.1-1.69,1.34-3.54,1.27-14.81,5.28-16.34,5.51,0,0,4.89-1.32,9.26-18.23,.11-.42,.34-.8,.67-1.08l4.7-4.03c.4-.34,.38-.97-.02-1.29l-4.32-3.44c-.38-.3-.64-.73-.74-1.21C9.24,15.71,6.43,4.32,0,0L17.1,5.93c.42,.15,.79,.43,1.04,.81l5.26,7.98c.4,.6,1.25,.6,1.65,0Z"/></svg>