<?xml version="1.0" encoding="UTF-8"?><svg id="Layer_1" xmlns="http://www.w3.org/2000/svg" viewBox="0 0 16 16"><defs><style>.cls-1{fill:#010101;}</style></defs><path class="cls-1" d="M8.35,4.91l1.73-2.63c.08-.12,.2-.22,.33-.27,.99-.36,5.2-1.9,5.59-2.01,0,0-1.55,.35-3.14,6.18-.04,.14-.11,.26-.22,.35l-1.6,1.36c-.13,.11-.13,.32,0,.43l1.53,1.22c.12,.1,.21,.23,.24,.39,.24,1.02,1.29,5.07,3.18,6.06,0,0-5.48-1.81-5.71-1.81-.18,0-1.4-2.05-1.95-2.99-.13-.21-.42-.22-.56-.01l-1.66,2.53c-.14,.21-.33,.37-.56,.45-1.18,.42-4.94,1.76-5.45,1.84,0,0,1.63-.44,3.09-6.08,.04-.14,.11-.27,.22-.36l1.57-1.34c.13-.11,.13-.32,0-.43l-1.44-1.15c-.13-.1-.21-.24-.25-.4C3.08,5.24,2.14,1.44,0,0L5.7,1.98c.14,.05,.26,.14,.35,.27l1.75,2.66c.13,.2,.42,.2,.55,0Z"/></svg>