<svg width="199" height="24" viewBox="0 0 199 24" fill="none" xmlns="http://www.w3.org/2000/svg">
<g clip-path="url(#clip0_1798_9124)">
<path d="M11.9983 7.35865L14.49 3.40697C14.6064 3.22161 14.7747 3.08181 14.971 3.00725C16.4005 2.46255 22.4516 0.157404 23 0C23 0 20.7739 0.522955 18.4823 9.27339C18.4285 9.47946 18.3178 9.66379 18.1649 9.80048L15.8695 11.8478C15.679 12.0176 15.6838 12.3324 15.8791 12.496L18.0831 14.3331C18.2582 14.4791 18.3823 14.6842 18.4342 14.9161C18.7777 16.4508 20.2909 22.5223 23 24C23 24 15.1259 21.2786 14.7949 21.2786C14.539 21.2786 12.7814 18.203 11.9897 16.7936C11.8088 16.4726 11.3807 16.4612 11.1854 16.7729L8.80538 20.5744C8.61009 20.8871 8.32629 21.1222 7.99632 21.2454C6.29931 21.8802 0.898528 23.8861 0.16643 23.999C0.16643 23.999 2.50991 23.3404 4.60423 14.8861C4.65618 14.6748 4.76778 14.4864 4.92362 14.3466L7.17379 12.3303C7.36331 12.1605 7.3585 11.8457 7.16321 11.6831L5.0939 9.96203C4.91304 9.81084 4.78702 9.59751 4.73795 9.35623C4.42818 7.85364 3.08135 2.16017 0 0L8.19257 2.96479C8.3946 3.03832 8.56872 3.18019 8.68897 3.36969L11.2085 7.35865C11.398 7.65896 11.8088 7.65896 11.9983 7.35865Z" fill="#081014"/>
</g>
<path d="M49.456 4.082L58.546 18.5H55.972L54.1 15.512H42.238L40.366 18.5H37.792L46.882 4.082H49.456ZM43.696 13.208H52.642L48.16 6.134L43.696 13.208ZM73.3634 18.482C60.9614 18.482 60.9614 18.482 60.9614 18.482V4.082C60.9614 4.082 71.4734 4.082 72.0134 4.082C74.3174 4.082 76.1714 5.936 76.1714 8.222C76.1714 9.374 75.7034 10.202 75.3974 10.616C76.4234 11.192 77.5574 12.452 77.5574 14.288C77.5574 16.61 75.6674 18.482 73.3634 18.482ZM73.3634 16.178C74.4074 16.178 75.2534 15.332 75.2534 14.288C75.2534 13.244 74.4074 12.398 73.3634 12.398H64.3454V12.362H63.2654V16.178H73.3634ZM73.8674 8.222C73.8674 7.214 73.0394 6.386 72.0134 6.386H63.2654V10.058H72.0134C73.0394 10.058 73.8674 9.23 73.8674 8.222ZM89.356 4.01C94.558 4.01 98.95 7.178 98.95 11.282C98.95 15.386 94.558 18.536 89.356 18.536C84.136 18.536 79.744 15.368 79.744 11.282C79.744 7.16 84.154 4.01 89.356 4.01ZM89.356 16.232C93.424 16.232 96.61 13.91 96.61 11.282C96.61 8.654 93.442 6.314 89.356 6.314C85.27 6.314 82.102 8.636 82.102 11.282C82.102 13.892 85.252 16.232 89.356 16.232ZM117.51 11.642V4.1H119.814V11.642C119.814 15.566 115.674 18.59 110.688 18.59C105.63 18.59 101.58 15.494 101.58 11.642V4.1H103.884V11.642C103.884 14.09 106.854 16.268 110.688 16.268C114.522 16.268 117.51 14.108 117.51 11.642ZM140.89 4.082V6.386H132.826V18.482H130.522V6.386H122.458V4.082H140.89ZM173.373 11.642V4.1H175.677V11.642C175.677 15.566 171.537 18.59 166.551 18.59C161.493 18.59 157.443 15.494 157.443 11.642V4.1H159.747V11.642C159.747 14.09 162.717 16.268 166.551 16.268C170.385 16.268 173.373 14.108 173.373 11.642ZM194.521 14.414C194.521 16.79 192.109 18.59 187.123 18.59C185.827 18.59 182.803 18.464 178.609 17.186L179.293 14.99C182.047 15.836 184.765 16.286 187.105 16.286H187.123C188.347 16.286 191.947 16.124 191.947 14.414C191.947 10.76 178.375 14.432 178.339 8.132C178.357 5.756 180.751 3.956 185.737 3.956C187.033 3.956 190.057 4.064 194.251 5.36L193.567 7.556C190.579 6.638 187.897 6.26 185.737 6.26C184.549 6.26 180.913 6.404 180.913 8.132C180.931 11.768 194.521 8.114 194.521 14.414Z" fill="#081014"/>
<defs>
<clipPath id="clip0_1798_9124">
<rect width="23" height="24" fill="white"/>
</clipPath>
</defs>
</svg>
