<svg preserveAspectRatio="none" width="100%" height="100%" overflow="visible" style="display: block;" viewBox="0 0 30 30" fill="none" xmlns="http://www.w3.org/2000/svg">
<g id="security-user">
<g id="Group">
<path id="Vector" d="M13.1125 2.7875L6.875 5.12499C5.4375 5.66249 4.2625 7.36248 4.2625 8.89998V18.1875C4.2625 19.6625 5.23752 21.6 6.42502 22.4875L11.8 26.5C13.5625 27.825 16.4625 27.825 18.225 26.5L23.6 22.4875C24.7875 21.6 25.7625 19.6625 25.7625 18.1875V8.89998C25.7625 7.36248 24.5875 5.66249 23.15 5.12499L16.9125 2.7875C15.85 2.4 14.15 2.4 13.1125 2.7875Z" stroke="var(--stroke-0, #1E1E1E)" stroke-width="2" stroke-linecap="round" stroke-linejoin="round"/>
</g>
<g id="Group_2">
<path id="Vector_2" d="M15 13.65C14.95 13.65 14.8875 13.65 14.8375 13.65C13.6625 13.6125 12.725 12.6375 12.725 11.45C12.725 10.2375 13.7125 9.24999 14.925 9.24999C16.1375 9.24999 17.125 10.2375 17.125 11.45C17.1125 12.65 16.175 13.6125 15 13.65Z" stroke="var(--stroke-0, #1E1E1E)" stroke-width="2" stroke-linecap="round" stroke-linejoin="round"/>
<path id="Vector_3" d="M12.5125 17.15C11.3125 17.95 11.3125 19.2625 12.5125 20.0625C13.875 20.975 16.1125 20.975 17.475 20.0625C18.675 19.2625 18.675 17.95 17.475 17.15C16.125 16.2375 13.8875 16.2375 12.5125 17.15Z" stroke="var(--stroke-0, #1E1E1E)" stroke-width="2" stroke-linecap="round" stroke-linejoin="round"/>
</g>
<g id="Vector_4" opacity="0">
</g>
</g>
</svg>
