<svg preserveAspectRatio="none" width="100%" height="100%" overflow="visible" style="display: block;" viewBox="0 0 30 30" fill="none" xmlns="http://www.w3.org/2000/svg">
<g id="security-safe">
<path id="Vector" d="M26.1375 13.9C26.1375 20.0125 21.7 25.7375 15.6375 27.4125C15.225 27.525 14.775 27.525 14.3625 27.4125C8.29999 25.7375 3.8625 20.0125 3.8625 13.9V8.41247C3.8625 7.38747 4.63751 6.22497 5.60001 5.83747L12.5625 2.98751C14.125 2.35001 15.8875 2.35001 17.45 2.98751L24.4125 5.83747C25.3625 6.22497 26.15 7.38747 26.15 8.41247L26.1375 13.9Z" stroke="var(--stroke-0, #1E1E1E)" stroke-width="2" stroke-linecap="round" stroke-linejoin="round"/>
<g id="Group">
<path id="Vector_2" d="M15 15.625C16.3807 15.625 17.5 14.5057 17.5 13.125C17.5 11.7443 16.3807 10.625 15 10.625C13.6193 10.625 12.5 11.7443 12.5 13.125C12.5 14.5057 13.6193 15.625 15 15.625Z" stroke="var(--stroke-0, #1E1E1E)" stroke-width="2" stroke-miterlimit="10" stroke-linecap="round" stroke-linejoin="round"/>
<path id="Vector_3" d="M15 15.625V19.375" stroke="var(--stroke-0, #1E1E1E)" stroke-width="2" stroke-miterlimit="10" stroke-linecap="round" stroke-linejoin="round"/>
</g>
<g id="Vector_4" opacity="0">
</g>
</g>
</svg>
