<svg width="24" height="24" viewBox="0 0 24 24" fill="none" xmlns="http://www.w3.org/2000/svg">
<rect width="24" height="24" rx="2" fill="#081014"/>
<path d="M6.94 9.73H4.18V19.44H6.94V9.73ZM5.56 8.55C6.44 8.55 7.15 7.83 7.15 6.96C7.15 6.09 6.44 5.37 5.56 5.37C4.68 5.37 3.97 6.09 3.97 6.96C3.97 7.83 4.68 8.55 5.56 8.55ZM20.03 19.44H17.27V14.72C17.27 13.63 17.25 12.23 15.72 12.23C14.17 12.23 13.94 13.41 13.94 14.64V19.44H11.18V9.73H13.82V11.01H13.86C14.22 10.28 15.16 9.51 16.56 9.51C19.36 9.51 19.87 11.36 19.87 13.77V19.44H20.03Z" fill="white"/>
</svg>
