<svg preserveAspectRatio="none" width="100%" height="100%" overflow="visible" style="display: block;" viewBox="0 0 23 24" fill="none" xmlns="http://www.w3.org/2000/svg">
<g id="Logo" clip-path="url(#clip0_15_510)">
<path id="Vector" d="M11.9983 7.35865L14.49 3.40697C14.6064 3.22161 14.7747 3.08181 14.971 3.00725C16.4005 2.46255 22.4516 0.157404 23 0C23 0 20.7739 0.522955 18.4823 9.27339C18.4285 9.47946 18.3178 9.66379 18.1649 9.80048L15.8695 11.8478C15.679 12.0176 15.6838 12.3324 15.8791 12.496L18.0831 14.3331C18.2582 14.4791 18.3823 14.6842 18.4342 14.9161C18.7777 16.4508 20.2909 22.5223 23 24C23 24 15.1259 21.2786 14.7949 21.2786C14.539 21.2786 12.7814 18.203 11.9897 16.7936C11.8088 16.4726 11.3807 16.4612 11.1854 16.7729L8.80538 20.5744C8.61009 20.8871 8.32629 21.1222 7.99632 21.2454C6.29931 21.8802 0.898528 23.8861 0.16643 23.999C0.16643 23.999 2.50991 23.3404 4.60423 14.8861C4.65618 14.6748 4.76778 14.4864 4.92362 14.3466L7.17379 12.3303C7.36331 12.1605 7.3585 11.8457 7.16321 11.6831L5.0939 9.96203C4.91304 9.81084 4.78702 9.59751 4.73795 9.35623C4.42818 7.85364 3.08135 2.16017 0 0L8.19257 2.96479C8.3946 3.03832 8.56872 3.18019 8.68897 3.36969L11.2085 7.35865C11.398 7.65896 11.8088 7.65896 11.9983 7.35865Z" fill="var(--fill-0, #081014)"/>
</g>
<defs>
<clipPath id="clip0_15_510">
<rect width="23" height="24" fill="white"/>
</clipPath>
</defs>
</svg>
