<svg preserveAspectRatio="none" width="100%" height="100%" overflow="visible" style="display: block;" viewBox="0 0 14 14" fill="none" xmlns="http://www.w3.org/2000/svg">
<g id="3492944464">
<path id="aA4uwAbk9" d="M3.9375 2.18108V11.8195C3.94042 11.9758 4.02675 12.1188 4.16383 12.1946C4.30092 12.2698 4.46833 12.2663 4.60192 12.1853L12.4816 7.36633C12.6093 7.28875 12.6875 7.14992 12.6875 7C12.6875 6.85067 12.6093 6.71183 12.4816 6.63425L4.60192 1.81533C4.46833 1.73425 4.30092 1.73075 4.16383 1.806C4.02675 1.88125 3.94042 2.02475 3.9375 2.18108Z" fill="var(--fill-0, #081014)"/>
<path id="dfZTdlcyH" d="M3.9375 2.18108V11.8195C3.94042 11.9758 4.02675 12.1188 4.16383 12.1946C4.30092 12.2698 4.46833 12.2663 4.60192 12.1853L12.4816 7.36633C12.6093 7.28875 12.6875 7.14992 12.6875 7C12.6875 6.85067 12.6093 6.71183 12.4816 6.63425L4.60192 1.81533C4.46833 1.73425 4.30092 1.73075 4.16383 1.806C4.02675 1.88125 3.94042 2.02475 3.9375 2.18108Z" stroke="var(--stroke-0, #081014)" stroke-width="1.75" stroke-linecap="round" stroke-linejoin="round"/>
</g>
</svg>
