<svg width="183" height="23" viewBox="0 0 245.304 31" fill="none" xmlns="http://www.w3.org/2000/svg" aria-hidden="true">
<g id="Group 1437253988">
<g id="Logo" clip-path="url(#clip0_15_505)">
<path id="Vector" d="M15.7152 9.50492L18.9788 4.40067C19.1312 4.16124 19.3517 3.98067 19.6088 3.88436C21.4812 3.18079 29.4069 0.203314 30.1251 0C30.1251 0 27.2093 0.675483 24.2079 11.9781C24.1374 12.2443 23.9925 12.4824 23.7921 12.659L20.7857 15.3034C20.5362 15.5227 20.5425 15.9294 20.7983 16.1407L23.685 18.5136C23.9143 18.7022 24.0769 18.967 24.1449 19.2666C24.5948 21.249 26.5768 29.0912 30.1251 31C30.1251 31 19.8116 27.4848 19.3782 27.4848C19.043 27.4848 16.7409 23.5122 15.7039 21.6917C15.467 21.277 14.9063 21.2623 14.6505 21.6649L11.5332 26.5752C11.2774 26.9792 10.9057 27.2828 10.4735 27.442C8.25076 28.2619 1.17688 30.8529 0.217987 30.9987C0.217987 30.9987 3.28745 30.1479 6.03056 19.2279C6.0986 18.955 6.24477 18.7115 6.4489 18.531L9.39613 15.9267C9.64436 15.7073 9.63806 15.3007 9.38227 15.0907L6.67192 12.8676C6.43503 12.6723 6.26997 12.3968 6.20571 12.0851C5.79997 10.1443 4.03591 2.79021 0 0L10.7305 3.82952C10.9951 3.92449 11.2232 4.10774 11.3807 4.35252L14.6808 9.50492C14.929 9.89282 15.467 9.89282 15.7152 9.50492Z" fill="var(--fill-0, white)"/>
</g>
<g id="Sentinaly">
<path d="M56.8334 21.0952C56.8334 24.211 53.7077 26.5714 47.2465 26.5714C45.567 26.5714 41.6482 26.4062 36.2133 24.7303L37.0997 21.8505C40.6685 22.9599 44.1908 23.55 47.2231 23.55H47.2465C48.8326 23.55 53.4978 23.3376 53.4978 21.0952C53.4978 16.3035 35.91 21.1188 35.8634 12.8572C35.8867 9.7414 38.9891 7.38095 45.4504 7.38095C47.1298 7.38095 51.0486 7.52257 56.4835 9.2221L55.5971 12.1018C51.725 10.898 48.2495 10.4023 45.4504 10.4023C43.9108 10.4023 39.199 10.5912 39.199 12.8572C39.2223 17.6253 56.8334 12.8336 56.8334 21.0952Z" fill="var(--fill-0, white)"/>
<path d="M81.4416 10.6148H63.7138V14.4859H79.9487V17.5073H63.7138V23.432H81.4416V26.4534L60.7281 26.477V7.59339H81.4416V10.6148Z" fill="var(--fill-0, white)"/>
<path d="M105.406 22.8891V7.59339H108.392V26.477H104.963L88.6115 11.2049V26.477H85.6258V7.59339H89.0314L105.406 22.8891Z" fill="var(--fill-0, white)"/>
<path d="M135.991 7.54618V10.5676H125.541V26.4298H122.555V10.5676H112.105V7.54618H135.991Z" fill="var(--fill-0, white)"/>
<path d="M142.734 7.56978V26.4534H139.725V7.56978H142.734Z" fill="var(--fill-0, white)"/>
<path d="M166.705 22.8891V7.59339H169.691V26.477H166.262L149.91 11.2049V26.477H146.925V7.59339H150.33L166.705 22.8891Z" fill="var(--fill-0, white)"/>
<path d="M187.983 7.54618L199.762 26.4534H196.427L194.001 22.535H178.629L176.203 26.4534H172.867L184.647 7.54618H187.983ZM180.518 19.5137H192.111L186.303 10.2371L180.518 19.5137Z" fill="var(--fill-0, white)"/>
<path d="M205.925 26.4534V26.477H202.939V7.59339H205.925V23.432H223.862V26.4534H205.925Z" fill="var(--fill-0, white)"/>
<path d="M230.259 26.4534V17.6017L218.2 7.59339H222.632L231.752 15.1232L240.803 7.59339H245.304L233.245 17.5781V26.4534H230.259Z" fill="var(--fill-0, white)"/>
</g>
</g>
<defs>
<clipPath id="clip0_15_505">
<rect width="30.1251" height="31" fill="white"/>
</clipPath>
</defs>
</svg>
