<svg preserveAspectRatio="none" width="100%" height="100%" overflow="visible" style="display: block;" viewBox="0 0 112.308 10" fill="none" xmlns="http://www.w3.org/2000/svg">
<g id="Group 1437253988">
<g id="Sentinaly">
<path d="M11.2447 7.14637C11.2447 8.76999 9.5686 10 6.10389 10C5.20332 10 3.10198 9.9139 0.18762 9.04059L0.662922 7.53998C2.57664 8.11808 4.46535 8.42558 6.09138 8.42558H6.10389C6.95443 8.42558 9.45603 8.31488 9.45603 7.14637C9.45603 4.64945 0.0250159 7.15867 0 2.85363C0.012508 1.23001 1.67607 0 5.14078 0C6.04135 0 8.14269 0.0738005 11.057 0.95941L10.5817 2.46002C8.50542 1.83272 6.64173 1.57442 5.14078 1.57442C4.31525 1.57442 1.78864 1.67282 1.78864 2.85363C1.80115 5.33825 11.2447 2.84133 11.2447 7.14637Z" fill="var(--fill-0, white)"/>
<path d="M24.4402 1.68512H14.9341V3.70234H23.6397V5.27675H14.9341V8.36408H24.4402V9.9385L13.3331 9.9508V0.110701H24.4402V1.68512Z" fill="var(--fill-0, white)"/>
<path d="M37.2907 8.08118V0.110701H38.8917V9.9508H37.053L28.2849 1.99262V9.9508H26.6839V0.110701H28.5101L37.2907 8.08118Z" fill="var(--fill-0, white)"/>
<path d="M53.6909 0.0861005V1.66052H48.0873V9.9262H46.4863V1.66052H40.8827V0.0861005H53.6909Z" fill="var(--fill-0, white)"/>
<path d="M57.307 0.0984012V9.9385H55.6935V0.0984012H57.307Z" fill="var(--fill-0, white)"/>
<path d="M70.1607 8.08118V0.110701H71.7617V9.9508H69.9231L61.155 1.99262V9.9508H59.554V0.110701H61.3801L70.1607 8.08118Z" fill="var(--fill-0, white)"/>
<path d="M81.5702 0.0861005L87.8868 9.9385H86.0981L84.7973 7.89668H76.5545L75.2537 9.9385H73.4651L79.7816 0.0861005H81.5702ZM77.5677 6.32226H83.7841L80.6697 1.48831L77.5677 6.32226Z" fill="var(--fill-0, white)"/>
<path d="M91.1912 9.9385V9.9508H89.5902V0.110701H91.1912V8.36408H100.81V9.9385H91.1912Z" fill="var(--fill-0, white)"/>
<path d="M104.24 9.9385V5.32595L97.7734 0.110701H100.15L105.041 4.03444L109.894 0.110701H112.308L105.841 5.31365V9.9385H104.24Z" fill="var(--fill-0, white)"/>
</g>
</g>
</svg>
