<svg width="291" height="49" viewBox="0 0 291 49" fill="none" xmlns="http://www.w3.org/2000/svg">
<rect width="291" height="49" fill="white"/>
<path d="M22.832 30H21.328V18.8H26.656C28.976 18.8 30.576 20.112 30.608 22.032C30.624 23.776 29.504 24.864 27.392 25.168L31.52 30H29.68L25.616 25.232H22.832V30ZM22.832 20.112V23.872H26.528C28.256 23.872 29.2 23.216 29.2 22.032C29.2 20.928 28.144 20.112 26.656 20.112H22.832ZM36.5929 30.256C32.3049 30.256 31.9529 27.008 31.9529 26.032C31.9529 25.136 32.1449 24.384 32.5289 23.712C33.2969 22.416 34.6889 21.632 36.4809 21.632C39.2489 21.632 40.8649 23.136 40.8649 25.728V26.352H33.5209C33.6969 28.096 34.7849 29.056 36.6249 29.056C38.1609 29.056 39.0409 28.448 39.3129 27.248H40.8329C40.4969 29.2 38.9769 30.256 36.5929 30.256ZM33.5049 25.248H39.4089C39.3449 23.552 38.4009 22.8 36.4649 22.8C35.7769 22.8 35.2329 22.896 34.8489 23.12C34.0169 23.584 33.6489 24.4 33.5049 25.248ZM51.4516 33.04H49.9636V28.544C49.2436 29.6 47.8836 30.256 46.3476 30.256C45.4996 30.256 44.7636 30.08 44.1396 29.712C42.8916 29.04 42.1716 27.696 42.1716 26.016C42.1716 25.136 42.3636 24.384 42.7316 23.712C43.4676 22.416 44.7956 21.632 46.5076 21.632C48.0436 21.632 49.2116 22.192 50.0116 23.264L50.2356 21.888H51.4516V33.04ZM46.8116 29.056C47.4196 29.056 47.9636 28.928 48.4436 28.672C49.3876 28.16 49.9796 27.296 49.9796 26.208V25.728C49.9796 25.168 49.8516 24.656 49.5956 24.24C49.0676 23.36 48.1396 22.864 46.9076 22.864C44.8756 22.864 43.7396 23.936 43.7396 26C43.7396 27.92 44.8916 29.056 46.8116 29.056ZM56.7888 30.256C54.6768 30.256 53.5088 29.152 53.5088 27.184V21.888H54.9968V26.912C54.9968 28.336 55.7008 29.008 57.1727 29.008C58.0368 29.008 58.8368 28.704 59.5088 28.08C60.0688 27.616 60.3408 27.024 60.3408 26.336V21.888H61.8288V30H60.6128L60.3568 28.496C59.4288 29.664 58.2448 30.256 56.7888 30.256ZM68.171 30.256C63.883 30.256 63.531 27.008 63.531 26.032C63.531 25.136 63.723 24.384 64.107 23.712C64.875 22.416 66.267 21.632 68.059 21.632C70.827 21.632 72.443 23.136 72.443 25.728V26.352H65.099C65.275 28.096 66.363 29.056 68.203 29.056C69.739 29.056 70.619 28.448 70.891 27.248H72.411C72.075 29.2 70.555 30.256 68.171 30.256ZM65.083 25.248H70.987C70.923 23.552 69.979 22.8 68.043 22.8C67.355 22.8 66.811 22.896 66.427 23.12C65.595 23.584 65.227 24.4 65.083 25.248ZM77.8938 30.256C75.2378 30.256 73.8138 29.344 73.6538 27.68H75.0618C75.1898 28.64 76.1658 29.104 77.9418 29.104C79.5898 29.104 80.6778 28.72 80.6778 27.92C80.6778 27.312 80.0378 26.928 78.6938 26.624L76.3418 26.096C74.7418 25.744 73.9738 24.976 73.9738 23.856C73.9738 22.336 75.3818 21.632 77.6218 21.632C80.0058 21.632 81.6538 22.416 81.8298 24.112H80.4538C80.2938 23.152 79.1418 22.8 77.6058 22.8C76.2778 22.784 75.3498 23.056 75.3498 23.808C75.3498 24.384 76.0058 24.816 77.0778 25.056L79.3978 25.584C81.1578 25.984 82.0698 26.688 82.0698 27.856C82.0698 29.36 80.5498 30.256 77.8938 30.256ZM87.5031 30.176C85.5991 30.176 84.4791 29.216 84.4791 27.632V23.04H82.8791V21.888H84.4791V19.696H85.9671V21.888H88.7511V23.04H85.9671V27.632C85.9671 28.528 86.5431 28.976 87.7591 28.976C88.1271 28.976 88.4311 28.96 88.7511 28.88V30.064C88.3511 30.144 87.9511 30.176 87.5031 30.176ZM103.594 30H94.2655V18.8H103.242V20.16H95.8335V23.536H102.586V24.896H95.8335V28.64H103.594V30ZM105.868 30H104.14L107.948 25.776L104.428 21.888H106.236L108.828 24.768L111.42 21.888H113.148L109.676 25.696L113.564 30H111.756L108.812 26.704L105.868 30ZM118.343 30.256C114.055 30.256 113.703 27.008 113.703 26.032C113.703 25.136 113.895 24.384 114.279 23.712C115.047 22.416 116.439 21.632 118.231 21.632C120.999 21.632 122.615 23.136 122.615 25.728V26.352H115.271C115.447 28.096 116.535 29.056 118.375 29.056C119.911 29.056 120.791 28.448 121.063 27.248H122.583C122.247 29.2 120.727 30.256 118.343 30.256ZM115.255 25.248H121.159C121.095 23.552 120.151 22.8 118.215 22.8C117.527 22.8 116.983 22.896 116.599 23.12C115.767 23.584 115.399 24.4 115.255 25.248ZM128.626 30.256C127.666 30.256 126.85 30.08 126.13 29.728C124.722 29.056 123.922 27.712 123.922 25.984C123.922 25.088 124.13 24.336 124.53 23.68C125.33 22.384 126.818 21.632 128.706 21.632C129.698 21.632 130.53 21.808 131.25 22.16C132.258 22.672 132.946 23.488 133.25 24.576H131.634C131.186 23.456 130.178 22.864 128.69 22.864C126.674 22.864 125.49 23.984 125.49 25.952C125.49 27.888 126.658 29.056 128.658 29.056C130.178 29.056 131.218 28.4 131.65 27.264H133.266C132.802 28.88 131.218 30.256 128.626 30.256ZM138.133 30.256C136.021 30.256 134.853 29.152 134.853 27.184V21.888H136.341V26.912C136.341 28.336 137.045 29.008 138.516 29.008C139.381 29.008 140.181 28.704 140.853 28.08C141.413 27.616 141.685 27.024 141.685 26.336V21.888H143.173V30H141.957L141.701 28.496C140.773 29.664 139.589 30.256 138.133 30.256ZM149.019 30.176C147.115 30.176 145.995 29.216 145.995 27.632V23.04H144.395V21.888H145.995V19.696H147.483V21.888H150.267V23.04H147.483V27.632C147.483 28.528 148.059 28.976 149.275 28.976C149.643 28.976 149.947 28.96 150.267 28.88V30.064C149.867 30.144 149.467 30.176 149.019 30.176ZM153.046 20.384H151.462V18.8H153.046V20.384ZM152.998 30H151.51V21.888H152.998V30ZM159.597 30H158.013L154.077 21.888H155.821L158.845 28.496L161.885 21.888H163.549L159.597 30ZM168.405 30.256C164.117 30.256 163.765 27.008 163.765 26.032C163.765 25.136 163.957 24.384 164.341 23.712C165.109 22.416 166.501 21.632 168.293 21.632C171.061 21.632 172.677 23.136 172.677 25.728V26.352H165.333C165.509 28.096 166.597 29.056 168.437 29.056C169.973 29.056 170.853 28.448 171.125 27.248H172.645C172.309 29.2 170.789 30.256 168.405 30.256ZM165.317 25.248H171.221C171.157 23.552 170.213 22.8 168.277 22.8C167.589 22.8 167.045 22.896 166.661 23.12C165.829 23.584 165.461 24.4 165.317 25.248ZM179.119 30H177.439L182.911 18.8H184.527L190.015 30H188.271L186.783 26.912H180.591L179.119 30ZM183.695 20.464L181.183 25.632H186.191L183.695 20.464ZM195.282 30.256C194.322 30.256 193.506 30.08 192.786 29.728C191.378 29.056 190.578 27.712 190.578 25.984C190.578 25.088 190.786 24.336 191.186 23.68C191.986 22.384 193.474 21.632 195.362 21.632C196.354 21.632 197.186 21.808 197.906 22.16C198.914 22.672 199.602 23.488 199.906 24.576H198.29C197.842 23.456 196.834 22.864 195.346 22.864C193.33 22.864 192.146 23.984 192.146 25.952C192.146 27.888 193.314 29.056 195.314 29.056C196.834 29.056 197.874 28.4 198.306 27.264H199.922C199.458 28.88 197.874 30.256 195.282 30.256ZM205.829 30.256C204.869 30.256 204.053 30.08 203.333 29.728C201.925 29.056 201.125 27.712 201.125 25.984C201.125 25.088 201.333 24.336 201.733 23.68C202.533 22.384 204.021 21.632 205.909 21.632C206.901 21.632 207.733 21.808 208.453 22.16C209.461 22.672 210.149 23.488 210.453 24.576H208.837C208.389 23.456 207.381 22.864 205.893 22.864C203.877 22.864 202.693 23.984 202.693 25.952C202.693 27.888 203.861 29.056 205.861 29.056C207.381 29.056 208.421 28.4 208.853 27.264H210.469C210.005 28.88 208.421 30.256 205.829 30.256ZM216.312 30.256C212.024 30.256 211.672 27.008 211.672 26.032C211.672 25.136 211.864 24.384 212.248 23.712C213.016 22.416 214.408 21.632 216.2 21.632C218.968 21.632 220.584 23.136 220.584 25.728V26.352H213.24C213.416 28.096 214.504 29.056 216.344 29.056C217.88 29.056 218.76 28.448 219.032 27.248H220.552C220.216 29.2 218.696 30.256 216.312 30.256ZM213.224 25.248H219.128C219.064 23.552 218.12 22.8 216.184 22.8C215.496 22.8 214.952 22.896 214.568 23.12C213.736 23.584 213.368 24.4 213.224 25.248ZM226.034 30.256C223.378 30.256 221.954 29.344 221.794 27.68H223.202C223.33 28.64 224.306 29.104 226.082 29.104C227.73 29.104 228.818 28.72 228.818 27.92C228.818 27.312 228.178 26.928 226.834 26.624L224.482 26.096C222.882 25.744 222.114 24.976 222.114 23.856C222.114 22.336 223.522 21.632 225.762 21.632C228.146 21.632 229.794 22.416 229.97 24.112H228.594C228.434 23.152 227.282 22.8 225.746 22.8C224.418 22.784 223.49 23.056 223.49 23.808C223.49 24.384 224.146 24.816 225.218 25.056L227.538 25.584C229.298 25.984 230.21 26.688 230.21 27.856C230.21 29.36 228.69 30.256 226.034 30.256ZM235.644 30.256C232.988 30.256 231.564 29.344 231.404 27.68H232.812C232.94 28.64 233.916 29.104 235.692 29.104C237.34 29.104 238.428 28.72 238.428 27.92C238.428 27.312 237.788 26.928 236.444 26.624L234.092 26.096C232.492 25.744 231.724 24.976 231.724 23.856C231.724 22.336 233.132 21.632 235.372 21.632C237.756 21.632 239.404 22.416 239.58 24.112H238.204C238.044 23.152 236.892 22.8 235.356 22.8C234.028 22.784 233.1 23.056 233.1 23.808C233.1 24.384 233.756 24.816 234.828 25.056L237.148 25.584C238.908 25.984 239.82 26.688 239.82 27.856C239.82 29.36 238.3 30.256 235.644 30.256Z" fill="#081014"/>
<g clip-path="url(#clip0_1798_9070)">
<mask id="mask0_1798_9070" style="mask-type:alpha" maskUnits="userSpaceOnUse" x="251" y="15" width="20" height="20">
<g clip-path="url(#clip1_1798_9070)">
<path d="M256.416 19.5834V21.25H263.575L255.583 29.2417L256.758 30.4167L264.75 22.425V29.5834H266.416V19.5834H256.416Z" fill="black"/>
</g>
</mask>
<g mask="url(#mask0_1798_9070)">
<rect x="251" y="15" width="20" height="20" fill="#081014"/>
</g>
</g>
<defs>
<clipPath id="clip0_1798_9070">
<rect width="20" height="20" fill="white" transform="translate(251 15)"/>
</clipPath>
<clipPath id="clip1_1798_9070">
<rect width="20" height="20" fill="white" transform="translate(251 15)"/>
</clipPath>
</defs>
</svg>
