<svg width="30" height="30" viewBox="0 0 30 30" fill="none" xmlns="http://www.w3.org/2000/svg">
<path d="M13.1127 2.78745L6.87519 5.12495C5.43769 5.66245 4.2627 7.36243 4.2627 8.89993V18.1874C4.2627 19.6624 5.23771 21.5999 6.42521 22.4874L11.8002 26.5C13.5627 27.825 16.4627 27.825 18.2252 26.5L23.6002 22.4874C24.7877 21.5999 25.7627 19.6624 25.7627 18.1874V8.89993C25.7627 7.36243 24.5877 5.66245 23.1502 5.12495L16.9127 2.78745C15.8502 2.39995 14.1502 2.39995 13.1127 2.78745Z" stroke="#1E1E1E" stroke-width="2" stroke-linecap="round" stroke-linejoin="round"/>
<path d="M14.9996 13.65C14.9496 13.65 14.8871 13.65 14.8371 13.65C13.6621 13.6125 12.7246 12.6375 12.7246 11.45C12.7246 10.2375 13.7121 9.25 14.9246 9.25C16.1371 9.25 17.1246 10.2375 17.1246 11.45C17.1121 12.65 16.1746 13.6125 14.9996 13.65Z" stroke="#1E1E1E" stroke-width="2" stroke-linecap="round" stroke-linejoin="round"/>
<path d="M12.5123 17.15C11.3123 17.95 11.3123 19.2624 12.5123 20.0624C13.8748 20.9749 16.1123 20.9749 17.4748 20.0624C18.6748 19.2624 18.6748 17.95 17.4748 17.15C16.1248 16.2375 13.8873 16.2375 12.5123 17.15Z" stroke="#1E1E1E" stroke-width="2" stroke-linecap="round" stroke-linejoin="round"/>
</svg>
