<svg width="336" height="24" viewBox="0 0 336 24" fill="none" xmlns="http://www.w3.org/2000/svg">
<g clip-path="url(#clip0_1798_9222)">
<path d="M11.9983 7.35865L14.49 3.40697C14.6064 3.22161 14.7747 3.08181 14.971 3.00725C16.4005 2.46255 22.4516 0.157404 23 0C23 0 20.7739 0.522955 18.4823 9.27339C18.4285 9.47946 18.3178 9.66379 18.1649 9.80048L15.8695 11.8478C15.679 12.0176 15.6838 12.3324 15.8791 12.496L18.0831 14.3331C18.2582 14.4791 18.3823 14.6842 18.4342 14.9161C18.7777 16.4508 20.2909 22.5223 23 24C23 24 15.1259 21.2786 14.7949 21.2786C14.539 21.2786 12.7814 18.203 11.9897 16.7936C11.8088 16.4726 11.3807 16.4612 11.1854 16.7729L8.80538 20.5744C8.61009 20.8871 8.32629 21.1222 7.99632 21.2454C6.29931 21.8802 0.898528 23.8861 0.16643 23.999C0.16643 23.999 2.50991 23.3404 4.60423 14.8861C4.65618 14.6748 4.76778 14.4864 4.92362 14.3466L7.17379 12.3303C7.36331 12.1605 7.3585 11.8457 7.16321 11.6831L5.0939 9.96203C4.91304 9.81084 4.78702 9.59751 4.73795 9.35623C4.42818 7.85364 3.08135 2.16017 0 0L8.19257 2.96479C8.3946 3.03832 8.56872 3.18019 8.68897 3.36969L11.2085 7.35865C11.398 7.65896 11.8088 7.65896 11.9983 7.35865Z" fill="#081014"/>
</g>
<path d="M54.406 14.414C54.406 16.79 51.994 18.59 47.008 18.59C45.712 18.59 42.688 18.464 38.494 17.186L39.178 14.99C41.932 15.836 44.65 16.286 46.99 16.286H47.008C48.232 16.286 51.832 16.124 51.832 14.414C51.832 10.76 38.26 14.432 38.224 8.132C38.242 5.756 40.636 3.956 45.622 3.956C46.918 3.956 49.942 4.064 54.136 5.36L53.452 7.556C50.464 6.638 47.782 6.26 45.622 6.26C44.434 6.26 40.798 6.404 40.798 8.132C40.816 11.768 54.406 8.114 54.406 14.414ZM73.3954 6.422H59.7154V9.374H72.2434V11.678H59.7154V16.196H73.3954V18.5L57.4114 18.518V4.118H73.3954V6.422ZM85.1385 6.332C81.0525 6.332 77.8845 8.654 77.8845 11.282C77.8845 13.91 81.0345 16.25 85.1385 16.25C87.9645 16.25 90.1965 15.134 91.3665 13.784L93.1125 15.296C91.3485 17.33 88.3605 18.554 85.1385 18.554C80.3865 18.554 75.5625 15.746 75.5625 11.282C75.5625 7.178 79.9185 4.028 85.1385 4.028C87.4425 4.028 90.7365 4.712 92.9505 7.088L91.2585 8.654C91.0245 8.402 89.0985 6.332 85.1385 6.332ZM111.709 11.642V4.1H114.013V11.642C114.013 15.566 109.873 18.59 104.887 18.59C99.8294 18.59 95.7794 15.494 95.7794 11.642V4.1H98.0834V11.642C98.0834 14.09 101.053 16.268 104.887 16.268C108.721 16.268 111.709 14.108 111.709 11.642ZM130.967 18.482L126.503 13.676H119.411V18.482H117.089V4.082C117.089 4.082 127.961 4.082 128.429 4.082C131.021 4.082 133.739 5.774 133.739 8.888C133.739 11.426 131.867 13.136 129.581 13.568L134.171 18.482H130.967ZM119.411 6.386V11.372H128.429C129.959 11.372 131.435 10.49 131.435 8.888C131.435 7.268 129.941 6.386 128.429 6.386H119.411ZM139.168 4.1V18.5H136.846V4.1H139.168ZM160.402 4.082V6.386H152.338V18.482H150.034V6.386H141.97V4.082H160.402ZM171.834 18.5V11.75L162.528 4.118H165.948L172.986 9.86L179.97 4.118H183.444L174.138 11.732V18.5H171.834ZM208.559 18.716C205.085 18.716 199.703 17.762 199.703 13.712C199.703 11.93 200.891 10.742 202.205 10.04C200.963 9.068 200.963 7.952 200.963 7.736C200.963 5.702 203.825 4.028 208.487 4.028C213.761 4.028 216.263 5.972 216.353 6.044L214.967 7.88C214.823 7.754 212.789 6.188 208.487 6.188C207.281 6.188 203.789 6.242 203.789 7.862C203.789 8.888 204.887 9.518 214.265 14.684C215.705 13.586 215.561 12.344 215.561 11.966H218.009C218.009 12.758 217.865 14.36 216.389 15.872C217.739 16.61 219.485 17.564 221.123 18.482V18.5H216.425C215.777 18.14 214.913 17.672 214.319 17.348C211.709 18.698 208.919 18.716 208.577 18.716H208.559ZM203.645 11.372C203.303 11.534 202.007 12.488 202.007 13.712C202.007 15.89 206.381 16.412 208.559 16.412C209.423 16.412 210.575 16.268 211.727 15.926L203.645 11.372ZM254.673 4.082V6.386H246.609V18.482H244.305V6.386H236.241V4.082H254.673ZM271.469 18.482L267.005 13.676H259.913V18.482H257.591V4.082C257.591 4.082 268.463 4.082 268.931 4.082C271.523 4.082 274.241 5.774 274.241 8.888C274.241 11.426 272.369 13.136 270.083 13.568L274.673 18.482H271.469ZM259.913 6.386V11.372H268.931C270.461 11.372 271.937 10.49 271.937 8.888C271.937 7.268 270.443 6.386 268.931 6.386H259.913ZM293.098 11.642V4.1H295.402V11.642C295.402 15.566 291.262 18.59 286.276 18.59C281.218 18.59 277.168 15.494 277.168 11.642V4.1H279.472V11.642C279.472 14.09 282.442 16.268 286.276 16.268C290.11 16.268 293.098 14.108 293.098 11.642ZM314.246 14.414C314.246 16.79 311.834 18.59 306.848 18.59C305.552 18.59 302.528 18.464 298.334 17.186L299.018 14.99C301.772 15.836 304.49 16.286 306.83 16.286H306.848C308.072 16.286 311.672 16.124 311.672 14.414C311.672 10.76 298.1 14.432 298.064 8.132C298.082 5.756 300.476 3.956 305.462 3.956C306.758 3.956 309.782 4.064 313.976 5.36L313.292 7.556C310.304 6.638 307.622 6.26 305.462 6.26C304.274 6.26 300.638 6.404 300.638 8.132C300.656 11.768 314.246 8.114 314.246 14.414ZM335.251 4.082V6.386H327.187V18.482H324.883V6.386H316.819V4.082H335.251Z" fill="#081014"/>
<defs>
<clipPath id="clip0_1798_9222">
<rect width="23" height="24" fill="white"/>
</clipPath>
</defs>
</svg>
