<svg width="30" height="30" viewBox="0 0 30 30" fill="none" xmlns="http://www.w3.org/2000/svg">
<path d="M26.1373 13.8999C26.1373 20.0124 21.6998 25.7374 15.6373 27.4124C15.2248 27.5249 14.7748 27.5249 14.3623 27.4124C8.2998 25.7374 3.8623 20.0124 3.8623 13.8999V8.41236C3.8623 7.38736 4.63732 6.22486 5.59982 5.83736L12.5623 2.9874C14.1248 2.3499 15.8873 2.3499 17.4498 2.9874L24.4123 5.83736C25.3623 6.22486 26.1498 7.38736 26.1498 8.41236L26.1373 13.8999Z" stroke="#1E1E1E" stroke-width="2" stroke-linecap="round" stroke-linejoin="round"/>
<path d="M15 15.625C16.3807 15.625 17.5 14.5057 17.5 13.125C17.5 11.7443 16.3807 10.625 15 10.625C13.6193 10.625 12.5 11.7443 12.5 13.125C12.5 14.5057 13.6193 15.625 15 15.625Z" stroke="#1E1E1E" stroke-width="2" stroke-miterlimit="10" stroke-linecap="round" stroke-linejoin="round"/>
<path d="M15 15.625V19.375" stroke="#1E1E1E" stroke-width="2" stroke-miterlimit="10" stroke-linecap="round" stroke-linejoin="round"/>
</svg>
